<?xml version="1.0" encoding="UTF-8" standalone="no"?>
<svg
   xmlns:dc="http://purl.org/dc/elements/1.1/"
   xmlns:cc="http://creativecommons.org/ns#"
   xmlns:rdf="http://www.w3.org/1999/02/22-rdf-syntax-ns#"
   xmlns:svg="http://www.w3.org/2000/svg"
   xmlns="http://www.w3.org/2000/svg"
   xmlns:sodipodi="http://sodipodi.sourceforge.net/DTD/sodipodi-0.dtd"
   xmlns:inkscape="http://www.inkscape.org/namespaces/inkscape"
   sodipodi:docname="navbar-logo.svg"
   inkscape:version="1.0 (4035a4f, 2020-05-01)"
   id="svg128"
   version="1.1"
   viewBox="0 0 226.24324 34.327076"
   height="34.327076"
   width="226.24324">
  <defs
     id="defs122">
    <rect
       id="rect19"
       height="82.247845"
       width="239.10779"
       y="-27.060765"
       x="-7.1246508" />
  </defs>
  <sodipodi:namedview
     fit-margin-bottom="0"
     fit-margin-right="0"
     fit-margin-left="0"
     fit-margin-top="0"
     inkscape:window-maximized="1"
     inkscape:window-y="23"
     inkscape:window-x="25"
     inkscape:window-height="855"
     inkscape:window-width="1415"
     showgrid="false"
     inkscape:document-rotation="0"
     inkscape:current-layer="layer1"
     inkscape:document-units="px"
     inkscape:cy="3.4346873"
     inkscape:cx="121.42172"
     inkscape:zoom="4.5837067"
     inkscape:pageshadow="2"
     inkscape:pageopacity="0.0"
     borderopacity="1.0"
     bordercolor="#666666"
     pagecolor="#ffffff"
     id="base"
     units="px" />
  <metadata
     id="metadata125">
    <rdf:RDF>
      <cc:Work
         rdf:about="">
        <dc:format>image/svg+xml</dc:format>
        <dc:type
           rdf:resource="http://purl.org/dc/dcmitype/StillImage" />
        <dc:title />
      </cc:Work>
    </rdf:RDF>
  </metadata>
  <g
     transform="translate(-1.383747,-1.5187255)"
     id="layer1"
     inkscape:groupmode="layer"
     inkscape:label="Layer 1">
    <g
       style="font-style:normal;font-weight:normal;font-size:50.6667px;line-height:1.25;font-family:sans-serif;fill:#000000;fill-opacity:1;stroke:none;stroke-width:0.264583"
       id="text132"
       aria-label="Semra Hunter">
      <path
         id="path23"
         style="font-style:normal;font-variant:normal;font-weight:normal;font-stretch:normal;font-size:50.6667px;font-family:SignPainter;-inkscape-font-specification:SignPainter;fill:#fed136;fill-opacity:1;stroke-width:0.264583"
         d="m 1.7703942,27.912373 c 4.0026692,4.61067 8.9173388,6.688005 12.6160078,6.688005 3.040002,0 5.52267,-1.064001 6.840004,-2.584002 1.317335,-1.570668 1.976002,-2.888002 1.976002,-4.053336 0,-0.962667 -0.557334,-1.874668 -1.520001,-2.584001 -1.976002,-1.418668 -8.917339,-4.30667 -8.765339,-7.650672 0.253333,-5.82667 11.34934,-13.274675 13.224008,-11.9066741 0.709334,0.506667 -0.658667,2.7360017 -1.925334,4.6106691 -1.672001,2.229335 -2.330668,4.15467 -2.330668,5.269337 0,1.165334 0.506666,2.026668 1.216,2.736002 0.962668,1.013334 1.520001,0.608 1.976002,-0.202667 0.709333,-1.216001 2.178668,-3.850669 3.394668,-5.472003 0.760001,-1.114668 2.026668,-3.1413357 1.520001,-5.2186704 C 29.637078,6.1763598 28.725078,4.5043587 27.30641,3.1870246 26.445076,2.4776908 25.431742,2.1230239 24.215742,2.1230239 c -1.165334,0 -2.229335,0.1520001 -3.901336,0.8613339 C 15.754403,4.9096923 7.850398,10.939029 7.850398,17.8297 c 0,5.168004 7.042671,7.904005 10.690673,10.741341 0.557334,0.456 0.810668,1.368 0.05067,2.128001 -0.557334,0.557334 -1.570668,0.810667 -2.685335,0.810667 -2.938668,0 -6.2826705,-2.533335 -8.2586718,-4.154669 -1.0640006,-0.861334 -2.4826682,-1.266668 -3.9520024,-1.266668 -0.6080004,0 -1.1653341,0.05067 -1.5706677,0.152 -0.7093338,0.253334 -1.0640007,0.810668 -0.3546669,1.672001 z" />
      <path
         id="path25"
         style="font-style:normal;font-variant:normal;font-weight:normal;font-stretch:normal;font-size:50.6667px;font-family:SignPainter;-inkscape-font-specification:SignPainter;fill:#fed136;fill-opacity:1;stroke-width:0.264583"
         d="m 37.887042,16.259033 c 0.557334,0.456 -0.506667,2.837335 -1.976001,4.813336 -1.013334,1.368001 -2.634668,2.888002 -3.850669,2.888002 -0.354667,0 -0.709334,-0.101333 -1.114667,-0.354667 2.432001,-4.864003 6.181337,-7.954672 6.941337,-7.346671 z m 3.800003,2.026668 c 0,-0.658667 -0.202667,-1.418668 -0.506667,-1.874668 -0.709334,-1.013334 -1.722668,-1.824001 -3.141336,-2.634668 -0.506666,-0.304001 -1.064,-0.405334 -1.773334,-0.405334 -2.938668,0 -7.042671,2.685335 -9.677339,8.056005 -1.064001,2.026668 -1.570668,4.002669 -1.570668,5.82667 0,4.053336 2.584002,7.144005 7.296005,7.093338 3.952002,-0.05067 8.005338,-2.432001 10.133339,-5.52267 0.912001,-1.368001 0.861334,-2.837335 0.709334,-3.293335 -0.405334,-1.013334 -1.064001,-0.912001 -1.621334,-0.101334 -2.077335,3.141336 -5.472004,6.890671 -9.322673,6.890671 -1.520001,0 -2.432001,-1.570667 -2.432001,-3.800002 0,-0.912001 0.152,-1.976001 0.456,-2.989335 1.165334,0.76 2.381335,1.114667 3.597336,1.114667 4.458669,0 7.853338,-5.320003 7.853338,-8.360005 z" />
      <path
         id="path27"
         style="font-style:normal;font-variant:normal;font-weight:normal;font-stretch:normal;font-size:50.6667px;font-family:SignPainter;-inkscape-font-specification:SignPainter;fill:#fed136;fill-opacity:1;stroke-width:0.264583"
         d="m 49.961549,13.725698 c -0.506667,-0.912001 -1.266668,-0.962667 -1.925335,0 -3.090668,4.712003 -6.738671,11.754674 -7.802671,14.794676 -0.405334,1.165334 -0.557334,2.026668 -0.557334,2.736002 0,1.165334 0.506667,2.077334 1.216001,2.685335 0.861334,0.76 1.418667,0.456 1.773334,-0.354667 1.976001,-4.661337 4.306669,-9.272006 7.144005,-12.312008 3.040002,-3.344002 5.016003,-4.45867 5.421336,-4.45867 0.456001,0 -0.962667,1.925335 -2.330668,4.205336 -1.368001,2.128002 -3.040002,4.864003 -3.749335,6.688005 -0.506667,1.266667 -0.912001,2.888001 -0.912001,3.749335 0,1.317334 0.354667,2.026668 1.114667,2.786669 0.810667,0.810667 1.520001,0.658667 2.026668,-0.304 2.128002,-4.712003 4.560003,-9.52534 8.512006,-13.477342 2.989335,-2.989335 4.053335,-3.496002 4.458669,-3.496002 0.405334,0 -0.810667,1.520001 -1.925334,3.192002 -1.165335,1.824001 -2.837336,4.560002 -3.648003,6.28267 -0.557333,1.266668 -0.76,2.381335 -0.76,3.293336 0,2.736001 1.874668,4.610669 5.320003,4.610669 3.141335,0 6.738671,-2.533335 8.157339,-5.472003 0.608,-1.165334 0.557333,-3.090669 0,-3.648003 -0.456001,-0.456 -0.962668,-0.405333 -1.418668,0.354667 -1.874668,3.090669 -4.357336,6.637338 -5.928004,6.637338 -0.810667,0 -1.317334,-0.810667 -1.317334,-1.976001 0,-1.773335 1.317334,-4.00267 2.736002,-6.181338 2.077334,-3.192002 3.141335,-5.52267 3.141335,-7.245338 0,-1.672001 -0.810667,-3.040001 -2.280001,-3.090668 -1.621335,-0.05067 -4.30667,1.672001 -6.586671,3.698669 0,-2.128001 -1.064001,-3.952003 -2.685335,-3.952003 -1.621334,0 -4.45867,1.925335 -6.637338,4.053336 0.101334,-0.506667 0.152,-0.962667 0.152,-1.368001 0,-0.810667 -0.253333,-1.672001 -0.709333,-2.432001 z" />
      <path
         id="path29"
         style="font-style:normal;font-variant:normal;font-weight:normal;font-stretch:normal;font-size:50.6667px;font-family:SignPainter;-inkscape-font-specification:SignPainter;fill:#fed136;fill-opacity:1;stroke-width:0.264583"
         d="m 78.459191,11.39503 c -1.570667,0 -4.813336,3.597335 -4.813336,6.181337 0,0.658667 0.354667,1.317334 0.962667,1.874668 -2.786668,3.445335 -5.37067,7.600005 -6.232004,9.221339 -0.709333,1.317334 -1.064,2.533335 -1.064,3.648002 0,1.114668 0.405333,2.178668 1.266667,2.989335 0.912001,0.962668 1.570668,0.506667 1.773335,-0.405333 0.709333,-3.496002 3.597335,-8.157339 7.397338,-14.744009 1.114667,-0.05067 2.381334,-0.253334 3.698669,-0.810668 -2.533335,3.090669 -5.21867,6.992005 -5.21867,10.234673 0,2.736002 1.672001,4.91467 4.762669,4.91467 2.888002,0 5.877337,-2.178668 7.093338,-5.06667 0.557334,-1.368 0.506667,-2.584001 0.152,-3.293335 -0.456,-0.912001 -1.165334,-0.861334 -1.570667,0.05067 -1.570668,3.496002 -3.597336,6.333337 -5.320004,6.333337 -0.709334,0 -1.114667,-0.810667 -1.114667,-2.128001 0,-2.989336 2.888002,-6.992005 5.624003,-10.13334 0.557334,-0.658667 0.810668,-1.368001 0.810668,-1.976001 0,-1.216001 -0.760001,-2.533335 -1.469335,-3.242669 -0.658667,-0.658667 -1.165334,-0.557334 -2.026668,0.05067 -1.520001,1.114667 -2.888001,1.824001 -4.104002,2.128001 0.557333,-1.621334 0.912,-3.090669 0.912,-4.053336 0,-1.165334 -0.456,-1.773334 -1.520001,-1.773334 z" />
      <path
         id="path31"
         style="font-style:normal;font-variant:normal;font-weight:normal;font-stretch:normal;font-size:50.6667px;font-family:SignPainter;-inkscape-font-specification:SignPainter;fill:#fed136;fill-opacity:1;stroke-width:0.264583"
         d="m 89.153823,21.528369 c -1.824001,2.533335 -2.736002,5.37067 -2.736002,7.549338 0,2.989336 1.621334,5.168004 4.61067,5.168004 2.026668,0 4.306669,-1.570668 5.776003,-2.989335 0.405334,1.874667 1.874668,3.192002 4.408006,3.192002 3.09067,0 6.33333,-2.685335 7.65067,-5.472004 0.70933,-1.469334 0.40533,-2.837335 0.20267,-3.293335 -0.50667,-1.064001 -0.96267,-1.013334 -1.52001,0 -1.672,3.293335 -4.20533,6.738671 -6.02933,6.738671 -0.50667,0 -0.70934,-0.456001 -0.70934,-1.216001 0,-3.394669 4.25601,-8.917339 5.57334,-11.704008 1.31733,-2.634668 0.86133,-4.864003 0,-5.877337 -0.608,-0.709333 -1.46933,-0.658667 -2.07733,0.354667 l -0.96267,1.570668 c -0.456,-1.317334 -1.57067,-2.229335 -3.39467,-2.229335 -2.584002,0 -6.738671,2.381335 -10.792007,8.208005 z m 2.533335,10.488007 c -0.506667,0 -0.709334,-0.608 -0.709334,-1.520001 0,-1.621334 0.861334,-4.306669 2.381335,-6.688004 2.584001,-4.154669 6.080004,-7.346671 7.093341,-7.346671 0.50666,0 0.608,0.354666 0.608,0.962667 0,1.317334 -0.912,3.800002 -2.888005,7.245338 -2.482668,4.256002 -4.813336,7.346671 -6.485337,7.346671 z" />
      <path
         id="path33"
         style="font-style:normal;font-variant:normal;font-weight:normal;font-stretch:normal;font-size:50.6667px;font-family:SignPainter;-inkscape-font-specification:SignPainter;fill:#fed136;fill-opacity:1;stroke-width:0.264583"
         d="m 147.01282,10.229696 c 1.46933,-2.5333353 1.976,-4.4586698 1.976,-5.8773374 0,-0.7600004 -0.20267,-1.3680008 -0.456,-1.9253345 -0.50667,-1.1146674 -1.26667,-1.2666675 -2.17867,-0.1013334 -2.02666,2.685335 -6.384,10.4373403 -9.62667,16.8720103 -2.78667,0.253334 -5.37067,0.912001 -8.56267,1.368001 l 5.42134,-9.880006 c 1.216,-2.2293348 1.672,-4.205336 1.672,-5.6240036 0,-0.8613339 -0.152,-1.5200009 -0.456,-2.0773346 -0.55734,-0.9626673 -1.31734,-1.1146674 -2.12801,-0.050667 -2.128,3.0400019 -6.73867,11.4506739 -9.88,17.9866779 -0.55734,0 -0.86134,-0.101333 -1.62134,-0.152 -1.368,-0.101333 -1.672,0.253333 -1.16533,1.216001 0.20267,0.354667 0.608,0.962667 1.62133,1.520001 -2.128,5.016003 -2.63466,6.536004 -2.63466,8.005338 0,1.165334 0.40533,2.026668 0.86133,2.634668 0.608,0.861334 1.52,0.608001 1.87467,-0.253333 1.46933,-3.242669 2.93867,-6.485338 4.408,-9.525339 2.28,0 5.52267,-0.608001 8.66401,-1.013334 -0.81067,1.672001 -1.46934,3.344002 -1.82401,4.306669 -0.456,1.368001 -0.65866,2.381335 -0.65866,3.141335 0,1.114668 0.40533,1.874668 0.86133,2.584002 0.55734,0.912 1.41867,0.658667 1.77334,-0.152 1.672,-3.698669 3.344,-7.144005 4.96533,-10.336007 0.86134,0 1.57067,0.05067 2.33067,0.152 0.96267,0.152 1.31733,-0.253333 1.16533,-0.912 -0.20266,-0.810667 -0.76,-1.672001 -1.824,-2.229335 1.11467,-2.026668 2.22934,-4.002669 5.42134,-9.677339 z" />
      <path
         id="path35"
         style="font-style:normal;font-variant:normal;font-weight:normal;font-stretch:normal;font-size:50.6667px;font-family:SignPainter;-inkscape-font-specification:SignPainter;fill:#fed136;fill-opacity:1;stroke-width:0.264583"
         d="m 165.16575,28.976374 c 0.76,-1.469334 0.55733,-2.938668 0.35467,-3.394669 -0.40534,-0.962667 -1.26667,-0.810667 -1.77334,0.05067 -1.824,3.192002 -4.408,6.688004 -6.08,6.688004 -0.65867,0 -0.96267,-0.506667 -0.96267,-1.418667 0,-1.976002 1.976,-5.421337 3.44534,-7.802672 1.77333,-2.938668 2.83733,-5.168003 2.83733,-6.890671 0,-1.114667 -0.25333,-1.925334 -0.76,-2.634668 -0.608,-0.861334 -1.41867,-0.658667 -2.128,0.304 -1.824,2.330668 -3.14133,5.776004 -6.13067,10.640007 -2.584,4.053336 -5.26934,7.498671 -6.58667,7.498671 -1.11467,0 -0.96267,-1.874668 -0.0507,-3.901336 1.77334,-3.901336 5.47201,-9.778673 5.47201,-11.856007 0,-0.760001 -0.20267,-1.621335 -0.76,-2.330668 -0.608,-0.760001 -1.52001,-0.861334 -2.17867,0 -3.14134,4.408002 -5.72534,9.474672 -6.84001,12.666674 -0.456,1.216001 -0.65866,2.381335 -0.65866,3.496002 0,2.178668 1.01333,4.104003 3.59733,4.104003 2.584,0 4.86401,-1.570668 6.58667,-3.496002 0.20267,2.280001 1.72267,3.749336 4.71201,3.749336 3.14133,0 6.43467,-2.584002 7.904,-5.472004 z" />
      <path
         id="path37"
         style="font-style:normal;font-variant:normal;font-weight:normal;font-stretch:normal;font-size:50.6667px;font-family:SignPainter;-inkscape-font-specification:SignPainter;fill:#fed136;fill-opacity:1;stroke-width:0.264583"
         d="m 172.12213,13.827031 c -0.50666,-0.912 -1.26666,-0.962667 -1.92533,0 -3.14134,4.712003 -7.04267,11.805341 -8.00534,14.642676 -0.304,1.013334 -0.456,1.874668 -0.456,2.634668 0,1.216001 0.40533,2.077335 1.11467,2.786669 0.81066,0.810667 1.46933,0.506667 1.824,-0.304 2.07733,-4.560003 4.35733,-9.52534 7.144,-12.464008 2.78667,-3.141335 5.26934,-4.560003 5.72534,-4.560003 0.35467,0 -0.456,1.317334 -1.52,2.989335 -1.976,3.141335 -4.30667,7.802672 -4.30667,10.538673 0,2.634669 1.46933,4.357337 4.864,4.357337 3.04,0 6.73867,-2.685335 8.15734,-5.472004 0.70933,-1.368001 0.65867,-2.938668 0.25333,-3.546669 -0.456,-0.709334 -1.16533,-0.76 -1.672,0.202667 -1.824,3.394669 -4.45867,6.688004 -6.18133,6.688004 -0.65867,0 -1.01334,-0.658667 -1.01334,-1.722668 0,-1.874667 1.72267,-5.218669 3.344,-7.802671 1.62134,-2.837335 2.53334,-4.45867 2.53334,-5.573337 0,-1.925334 -1.368,-3.698669 -2.83734,-3.698669 -1.824,0 -4.256,1.672001 -6.43467,3.698669 0.0507,-0.304 0.0507,-0.658667 0.0507,-1.013334 0,-0.810667 -0.20267,-1.621334 -0.65867,-2.381335 z" />
      <path
         id="path39"
         style="font-style:normal;font-variant:normal;font-weight:normal;font-stretch:normal;font-size:50.6667px;font-family:SignPainter;-inkscape-font-specification:SignPainter;fill:#fed136;fill-opacity:1;stroke-width:0.264583"
         d="m 182.55472,28.621707 c 0,3.496002 2.33066,5.67467 5.016,5.67467 4.256,0 7.65067,-4.357336 8.36,-5.877337 0.55734,-1.165334 0.76,-1.925334 0.50667,-2.989335 -0.35467,-1.368001 -1.52,-1.266667 -2.07733,-0.05067 -1.77334,3.800002 -4.40801,6.992004 -6.38401,6.992004 -0.86133,0 -1.368,-1.064001 -1.368,-2.584002 0,-1.114667 0.304,-2.432001 0.912,-3.800002 1.77334,-3.850669 4.66134,-8.866672 6.58667,-12.160008 1.11467,-0.152 2.432,-0.253333 3.344,-0.152 1.21601,0.152 1.57067,-0.456 1.06401,-1.368001 -0.35467,-0.608 -1.21601,-1.418667 -2.78667,-1.621334 0.608,-1.4186676 0.81066,-2.5840017 0.81066,-3.4960022 0,-0.6080004 -0.20266,-1.4693343 -0.55733,-2.0773347 -0.55733,-0.9626673 -1.16533,-1.0133339 -1.92533,0.1013334 -1.16534,1.6720011 -2.22934,3.3440021 -3.80001,6.0800035 -1.11466,0.101334 -2.48266,0.152 -3.648,0.101334 -1.16533,-0.05067 -1.672,0.456 -0.96267,1.520001 0.40534,0.608 1.31734,1.165334 2.88801,1.368001 -2.02667,3.648002 -3.95201,7.650671 -4.96534,10.133339 -0.70933,1.672001 -1.01333,3.090669 -1.01333,4.205336 z" />
      <path
         id="path41"
         style="font-style:normal;font-variant:normal;font-weight:normal;font-stretch:normal;font-size:50.6667px;font-family:SignPainter;-inkscape-font-specification:SignPainter;fill:#fed136;fill-opacity:1;stroke-width:0.264583"
         d="m 199.13856,22.59237 c 2.07734,-4.104002 5.52267,-7.042671 6.43467,-6.333337 0.50667,0.405333 -0.65866,2.888002 -2.07733,4.712003 -1.01333,1.368001 -2.38134,2.837335 -3.69867,2.837335 -0.35467,0 -0.70933,-0.101334 -1.11467,-0.304 0.10134,-0.253334 0.20267,-0.456001 0.456,-0.912001 z m 28.27202,2.989335 c -0.50667,-1.114667 -1.26667,-0.912 -1.72267,0.05067 -1.52,3.546669 -4.408,6.637337 -6.232,6.637337 -0.70933,0 -1.11467,-0.861333 -1.11467,-2.178668 0,-0.608 0.152,-1.52 0.35467,-2.178668 0.912,-2.584001 3.39467,-6.029337 5.57334,-8.562672 0.608,-0.658667 0.86133,-1.317334 0.86133,-1.925334 0,-1.266668 -0.86133,-2.634668 -1.52,-3.496002 -0.608,-0.810668 -1.31734,-0.456001 -2.128,0.05067 -1.672,1.064001 -2.98934,1.773335 -4.40801,2.128002 0.55734,-1.672001 0.96267,-3.192002 0.96267,-4.256003 0,-1.114667 -0.40533,-1.773334 -1.46933,-1.773334 -1.72267,0.05067 -5.11734,3.749335 -5.11734,6.43467 0,0.912001 0.50667,1.672001 1.41867,2.229335 -2.68534,6.181337 -7.95467,13.477342 -13.02134,13.477342 -1.41867,0 -2.33067,-1.520001 -2.33067,-3.850669 0,-0.912001 0.152,-1.976002 0.456,-2.989335 1.16533,0.810667 2.38133,1.114667 3.59733,1.114667 2.22934,0 4.15467,-1.266668 5.62401,-3.090669 1.368,-1.773334 2.128,-3.850669 2.128,-5.320003 0,-0.608 -0.20267,-1.216001 -0.456,-1.672001 -0.81067,-1.013334 -1.77334,-1.773335 -3.14134,-2.634668 -0.50666,-0.304001 -1.064,-0.405334 -1.72266,-0.405334 -2.88801,0 -7.04267,2.837335 -9.67734,8.005338 -1.01334,2.026668 -1.52,4.053336 -1.52,5.826671 0,4.002669 2.584,7.042671 7.24533,6.992004 6.18134,-0.101333 11.60268,-6.282671 15.75735,-14.946676 1.11466,-0.05067 2.38133,-0.253334 3.74933,-0.861334 -2.02667,2.381335 -4.00267,5.168003 -4.864,7.904005 -0.35467,1.064001 -0.50667,1.976001 -0.50667,2.786668 0,2.989336 1.77334,5.21867 4.96534,5.21867 2.98933,0 6.73867,-2.178668 8.00534,-5.320003 0.65866,-1.418667 0.50666,-2.837335 0.25333,-3.394669 z" />
    </g>
    <text
       style="fill:black;fill-opacity:1;line-height:1.25;stroke:none;font-family:sans-serif;font-style:normal;font-weight:normal;font-size:40px;white-space:pre;shape-inside:url(#rect19);"
       id="text17"
       xml:space="preserve" />
  </g>
</svg>
