<svg xmlns="http://www.w3.org/2000/svg" xmlns:svg="http://www.w3.org/2000/svg" width="226.243" height="34.327"><defs><path id="a" d="M-7.125-27.061h239.108v82.248H-7.125z"/></defs><g transform="translate(-1.384 -1.519)"><g fill="#fed136" stroke-width=".265" aria-label="Semra Hunter" font-family="SignPainter" font-size="50.667" font-weight="400" style="line-height:1.25"><path d="M1.77 27.912c4.003 4.611 8.918 6.688 12.616 6.688 3.04 0 5.523-1.064 6.84-2.584 1.318-1.57 1.976-2.888 1.976-4.053 0-.963-.557-1.875-1.52-2.584-1.976-1.419-8.917-4.307-8.765-7.65.253-5.827 11.35-13.275 13.224-11.907.71.506-.659 2.736-1.925 4.61-1.672 2.23-2.33 4.155-2.33 5.27 0 1.165.506 2.026 1.215 2.736.963 1.013 1.52.608 1.976-.203.71-1.216 2.179-3.85 3.395-5.472.76-1.115 2.026-3.141 1.52-5.219-.355-1.368-1.267-3.04-2.686-4.357-.86-.71-1.874-1.064-3.09-1.064-1.166 0-2.23.152-3.902.861C15.754 4.91 7.85 10.94 7.85 17.83c0 5.168 7.043 7.904 10.691 10.741.557.456.81 1.368.05 2.128-.557.557-1.57.81-2.685.81-2.938 0-6.282-2.533-8.258-4.154-1.064-.861-2.483-1.267-3.952-1.267-.608 0-1.166.051-1.57.152-.71.254-1.065.811-.356 1.672zM37.887 16.259c.557.456-.507 2.837-1.976 4.813-1.013 1.368-2.635 2.888-3.85 2.888-.355 0-.71-.101-1.115-.354 2.432-4.864 6.181-7.955 6.941-7.347zm3.8 2.027c0-.659-.203-1.419-.507-1.875-.709-1.013-1.722-1.824-3.141-2.635-.507-.304-1.064-.405-1.773-.405-2.939 0-7.043 2.685-9.678 8.056-1.064 2.027-1.57 4.003-1.57 5.827 0 4.053 2.584 7.144 7.296 7.093 3.952-.05 8.005-2.432 10.133-5.523.912-1.368.861-2.837.71-3.293-.406-1.013-1.065-.912-1.622-.101-2.077 3.141-5.472 6.89-9.323 6.89-1.52 0-2.432-1.57-2.432-3.8 0-.912.152-1.976.456-2.989 1.166.76 2.382 1.115 3.598 1.115 4.458 0 7.853-5.32 7.853-8.36z" style="-inkscape-font-specification:SignPainter"/><path d="M49.962 13.726c-.507-.912-1.267-.963-1.926 0-3.09 4.712-6.738 11.754-7.802 14.794-.406 1.166-.558 2.027-.558 2.736 0 1.166.507 2.078 1.216 2.686.862.76 1.419.456 1.774-.355 1.976-4.661 4.306-9.272 7.144-12.312 3.04-3.344 5.016-4.459 5.42-4.459.457 0-.962 1.926-2.33 4.206-1.368 2.128-3.04 4.864-3.75 6.688-.506 1.266-.911 2.888-.911 3.749 0 1.317.355 2.027 1.115 2.787.81.81 1.52.658 2.026-.304 2.128-4.712 4.56-9.526 8.512-13.478 2.99-2.989 4.054-3.496 4.459-3.496.405 0-.81 1.52-1.925 3.192-1.166 1.824-2.838 4.56-3.648 6.283-.558 1.267-.76 2.381-.76 3.293 0 2.736 1.874 4.611 5.32 4.611 3.14 0 6.738-2.533 8.157-5.472.608-1.165.557-3.09 0-3.648-.456-.456-.963-.405-1.419.355-1.874 3.09-4.357 6.637-5.928 6.637-.81 0-1.317-.81-1.317-1.976 0-1.773 1.317-4.003 2.736-6.181 2.077-3.192 3.141-5.523 3.141-7.246 0-1.672-.81-3.04-2.28-3.09-1.621-.051-4.306 1.672-6.586 3.698 0-2.128-1.064-3.952-2.686-3.952-1.621 0-4.458 1.926-6.637 4.054.101-.507.152-.963.152-1.368 0-.811-.253-1.672-.71-2.432z" style="-inkscape-font-specification:SignPainter"/><path d="M78.46 11.395c-1.571 0-4.814 3.597-4.814 6.181 0 .659.355 1.318.963 1.875-2.787 3.445-5.371 7.6-6.232 9.221-.71 1.318-1.064 2.534-1.064 3.648 0 1.115.405 2.179 1.266 2.99.912.962 1.57.506 1.774-.406.709-3.496 3.597-8.157 7.397-14.744 1.115-.05 2.381-.253 3.699-.81-2.534 3.09-5.22 6.992-5.22 10.234 0 2.736 1.673 4.915 4.764 4.915 2.888 0 5.877-2.179 7.093-5.067.557-1.368.507-2.584.152-3.293-.456-.912-1.165-.861-1.57.05-1.571 3.497-3.598 6.334-5.32 6.334-.71 0-1.115-.81-1.115-2.128 0-2.99 2.888-6.992 5.624-10.133.557-.659.81-1.368.81-1.976 0-1.216-.76-2.534-1.47-3.243-.658-.659-1.164-.557-2.026.05-1.52 1.115-2.888 1.825-4.104 2.129.558-1.622.912-3.091.912-4.054 0-1.165-.456-1.773-1.52-1.773z" style="-inkscape-font-specification:SignPainter"/><path d="M89.154 21.528c-1.824 2.534-2.736 5.371-2.736 7.55 0 2.989 1.621 5.168 4.61 5.168 2.027 0 4.307-1.571 5.776-2.99.406 1.875 1.875 3.192 4.409 3.192 3.09 0 6.333-2.685 7.65-5.472.71-1.469.406-2.837.203-3.293-.507-1.064-.963-1.013-1.52 0-1.672 3.293-4.205 6.739-6.03 6.739-.506 0-.709-.456-.709-1.216 0-3.395 4.256-8.918 5.574-11.704 1.317-2.635.86-4.864 0-5.878-.608-.709-1.47-.658-2.078.355l-.962 1.57c-.456-1.317-1.571-2.229-3.395-2.229-2.584 0-6.739 2.382-10.792 8.208zm2.533 10.488c-.507 0-.71-.608-.71-1.52 0-1.621.862-4.306 2.382-6.688 2.584-4.154 6.08-7.346 7.094-7.346.506 0 .607.354.607.962 0 1.318-.911 3.8-2.888 7.246-2.482 4.256-4.813 7.346-6.485 7.346zM147.013 10.23c1.47-2.534 1.976-4.459 1.976-5.878 0-.76-.203-1.368-.456-1.925-.507-1.115-1.267-1.267-2.179-.101-2.027 2.685-6.384 10.437-9.627 16.872-2.786.253-5.37.912-8.562 1.368l5.421-9.88c1.216-2.23 1.672-4.206 1.672-5.624 0-.862-.152-1.52-.456-2.078-.557-.962-1.317-1.114-2.128-.05-2.128 3.04-6.739 11.45-9.88 17.986-.557 0-.861-.101-1.621-.152-1.368-.101-1.672.254-1.166 1.216.203.355.608.963 1.622 1.52-2.128 5.016-2.635 6.536-2.635 8.006 0 1.165.405 2.026.861 2.634.608.862 1.52.608 1.875-.253 1.47-3.243 2.939-6.485 4.408-9.525 2.28 0 5.523-.608 8.664-1.014a50.022 50.022 0 00-1.824 4.307c-.456 1.368-.659 2.381-.659 3.141 0 1.115.406 1.875.862 2.584.557.912 1.418.659 1.773-.152a252.08 252.08 0 014.965-10.336c.862 0 1.571.051 2.331.152.963.152 1.317-.253 1.165-.912-.202-.81-.76-1.672-1.824-2.229 1.115-2.027 2.23-4.003 5.422-9.677zM165.166 28.976c.76-1.469.557-2.938.354-3.394-.405-.963-1.266-.811-1.773.05-1.824 3.192-4.408 6.688-6.08 6.688-.659 0-.963-.506-.963-1.418 0-1.976 1.976-5.422 3.446-7.803 1.773-2.939 2.837-5.168 2.837-6.89 0-1.115-.253-1.926-.76-2.635-.608-.862-1.419-.659-2.128.304-1.824 2.33-3.141 5.776-6.13 10.64-2.585 4.053-5.27 7.498-6.587 7.498-1.115 0-.963-1.874-.051-3.901 1.773-3.901 5.472-9.779 5.472-11.856 0-.76-.203-1.621-.76-2.33-.608-.76-1.52-.862-2.179 0-3.141 4.407-5.725 9.474-6.84 12.666-.456 1.216-.658 2.381-.658 3.496 0 2.179 1.013 4.104 3.597 4.104s4.864-1.57 6.587-3.496c.202 2.28 1.722 3.75 4.712 3.75 3.141 0 6.434-2.585 7.904-5.473z" style="-inkscape-font-specification:SignPainter"/><path d="M172.122 13.827c-.507-.912-1.267-.963-1.925 0-3.142 4.712-7.043 11.805-8.006 14.643-.304 1.013-.456 1.874-.456 2.634 0 1.216.406 2.078 1.115 2.787.81.81 1.47.507 1.824-.304 2.077-4.56 4.357-9.525 7.144-12.464 2.787-3.141 5.27-4.56 5.725-4.56.355 0-.456 1.317-1.52 2.99-1.976 3.14-4.306 7.802-4.306 10.538 0 2.635 1.47 4.357 4.864 4.357 3.04 0 6.738-2.685 8.157-5.472.71-1.368.659-2.938.253-3.546-.456-.71-1.165-.76-1.672.202-1.824 3.395-4.458 6.688-6.18 6.688-.66 0-1.014-.658-1.014-1.722 0-1.875 1.722-5.219 3.344-7.803 1.621-2.837 2.533-4.459 2.533-5.573 0-1.926-1.368-3.699-2.837-3.699-1.824 0-4.256 1.672-6.435 3.699.05-.304.05-.659.05-1.014 0-.81-.202-1.621-.658-2.381z" style="-inkscape-font-specification:SignPainter"/><path d="M182.555 28.622c0 3.496 2.33 5.674 5.016 5.674 4.256 0 7.65-4.357 8.36-5.877.557-1.165.76-1.925.506-2.99-.354-1.367-1.52-1.266-2.077-.05-1.773 3.8-4.408 6.992-6.384 6.992-.861 0-1.368-1.064-1.368-2.584 0-1.115.304-2.432.912-3.8 1.773-3.85 4.661-8.867 6.587-12.16 1.114-.152 2.432-.253 3.344-.152 1.216.152 1.57-.456 1.064-1.368-.355-.608-1.216-1.419-2.787-1.621.608-1.419.81-2.584.81-3.496 0-.608-.202-1.47-.557-2.078-.557-.962-1.165-1.013-1.925.102-1.165 1.672-2.23 3.344-3.8 6.08-1.115.101-2.483.152-3.648.101-1.165-.05-1.672.456-.963 1.52.406.608 1.318 1.165 2.888 1.368-2.026 3.648-3.952 7.65-4.965 10.133-.71 1.672-1.013 3.091-1.013 4.206z" style="-inkscape-font-specification:SignPainter"/><path d="M199.139 22.592c2.077-4.104 5.522-7.042 6.434-6.333.507.405-.658 2.888-2.077 4.712-1.013 1.368-2.381 2.837-3.699 2.837-.354 0-.71-.101-1.114-.304.1-.253.202-.456.456-.912zm28.272 2.99c-.507-1.115-1.267-.912-1.723.05-1.52 3.547-4.408 6.638-6.232 6.638-.71 0-1.115-.862-1.115-2.179 0-.608.152-1.52.355-2.179.912-2.584 3.395-6.029 5.573-8.562.608-.659.862-1.318.862-1.926 0-1.266-.862-2.634-1.52-3.496-.608-.81-1.318-.456-2.128.051-1.672 1.064-2.99 1.773-4.408 2.128.557-1.672.962-3.192.962-4.256 0-1.115-.405-1.773-1.47-1.773-1.722.05-5.116 3.749-5.116 6.434 0 .912.506 1.672 1.418 2.23-2.685 6.181-7.954 13.477-13.021 13.477-1.419 0-2.33-1.52-2.33-3.85 0-.913.151-1.977.455-2.99 1.166.81 2.382 1.115 3.598 1.115 2.229 0 4.154-1.267 5.624-3.091 1.368-1.773 2.128-3.85 2.128-5.32 0-.608-.203-1.216-.456-1.672-.811-1.013-1.774-1.773-3.142-2.635-.506-.304-1.064-.405-1.722-.405-2.888 0-7.043 2.837-9.678 8.005-1.013 2.027-1.52 4.054-1.52 5.827 0 4.003 2.584 7.043 7.246 6.992 6.18-.101 11.602-6.283 15.757-14.947 1.115-.05 2.381-.253 3.75-.861-2.027 2.381-4.003 5.168-4.865 7.904-.354 1.064-.506 1.976-.506 2.787 0 2.989 1.773 5.218 4.965 5.218 2.99 0 6.739-2.178 8.005-5.32.659-1.418.507-2.837.254-3.394z" style="-inkscape-font-specification:SignPainter"/></g></g></svg>