<?xml version="1.0" encoding="UTF-8" standalone="no"?>
<svg
   xmlns:dc="http://purl.org/dc/elements/1.1/"
   xmlns:cc="http://creativecommons.org/ns#"
   xmlns:rdf="http://www.w3.org/1999/02/22-rdf-syntax-ns#"
   xmlns:svg="http://www.w3.org/2000/svg"
   xmlns="http://www.w3.org/2000/svg"
   xmlns:sodipodi="http://sodipodi.sourceforge.net/DTD/sodipodi-0.dtd"
   xmlns:inkscape="http://www.inkscape.org/namespaces/inkscape"
   inkscape:export-ydpi="96"
   inkscape:export-xdpi="96"
   inkscape:export-filename="/Users/ganguera/Projects/Personal/agency-dev/images/logos/laliga.png"
   height="49.999996"
   viewBox="-2.67 0.68 150.35071 37.37855"
   width="200"
   version="1.1"
   id="svg32"
   sodipodi:docname="laliga.svg"
   inkscape:version="1.0 (4035a4f, 2020-05-01)">
  <metadata
     id="metadata38">
    <rdf:RDF>
      <cc:Work
         rdf:about="">
        <dc:format>image/svg+xml</dc:format>
        <dc:type
           rdf:resource="http://purl.org/dc/dcmitype/StillImage" />
        <dc:title></dc:title>
      </cc:Work>
    </rdf:RDF>
  </metadata>
  <defs
     id="defs36" />
  <sodipodi:namedview
     fit-margin-bottom="0"
     fit-margin-right="0"
     fit-margin-left="0"
     fit-margin-top="0"
     inkscape:document-rotation="0"
     pagecolor="#ffffff"
     bordercolor="#666666"
     borderopacity="1"
     objecttolerance="10"
     gridtolerance="10"
     guidetolerance="10"
     inkscape:pageopacity="0"
     inkscape:pageshadow="2"
     inkscape:window-width="1555"
     inkscape:window-height="943"
     id="namedview34"
     showgrid="false"
     units="px"
     inkscape:snap-bbox="true"
     lock-margins="false"
     inkscape:zoom="5.33"
     inkscape:cx="104.76018"
     inkscape:cy="50.86634"
     inkscape:window-x="142"
     inkscape:window-y="23"
     inkscape:window-maximized="0"
     inkscape:current-layer="svg32" />
  <path
     d="m 24.912989,16.258263 c 0.74939,-1.080671 1.887945,-1.82255 3.118703,-2.246025 -0.233718,0.172599 -0.433126,0.382729 -0.629315,0.593936 0.676493,-0.06115 1.374416,-0.01816 2.000519,0.266947 0.07505,0.602513 0.125431,1.208246 0.216561,1.808614 0.11793,-0.599304 0.150089,-1.210387 0.234781,-1.81397 0.626103,-0.277676 1.319749,-0.322702 1.994086,-0.261591 -0.182251,-0.189769 -0.36236,-0.381666 -0.551053,-0.563919 1.200742,0.420256 2.302848,1.160001 3.035079,2.212782 -0.216561,-0.103992 -0.42883,-0.211193 -0.642177,-0.320556 0.262659,0.621822 0.428835,1.296159 0.370947,1.975866 -0.545701,0.257297 -1.118195,0.466354 -1.637079,0.77833 0.593931,-0.0922 1.178217,-0.23371 1.767865,-0.348426 0.455642,0.516749 0.693645,1.16322 0.898414,1.809689 0.109357,-0.224068 0.215486,-0.449212 0.328056,-0.671129 -0.02353,1.285426 -0.415971,2.56122 -1.187871,3.596854 0.05152,-0.248727 0.09968,-0.497451 0.147945,-0.746174 -0.523176,0.437407 -1.110682,0.820147 -1.788242,0.960593 -0.406318,-0.438484 -0.781551,-0.909135 -1.22754,-1.309018 0.250874,0.542475 0.577861,1.046351 0.863029,1.570606 -0.341995,0.603582 -0.887679,1.043138 -1.463399,1.409792 0.246584,0.03651 0.494238,0.07078 0.740816,0.107213 -0.599297,0.150091 -1.209317,0.293747 -1.831126,0.293747 -0.653975,0.01284 -1.297227,-0.132939 -1.926545,-0.295894 0.248726,-0.03651 0.497453,-0.06967 0.746171,-0.106139 -0.578923,-0.36451 -1.128903,-0.805137 -1.466615,-1.411939 0.288395,-0.523178 0.612166,-1.025986 0.86196,-1.569533 -0.444921,0.400958 -0.820137,0.870533 -1.225396,1.310092 -0.678631,-0.137231 -1.267205,-0.521036 -1.789308,-0.95952 0.04817,0.251939 0.09655,0.503877 0.151157,0.754747 -0.7719,-1.042068 -1.180363,-2.323209 -1.187868,-3.618289 0.100804,0.235854 0.215489,0.465277 0.33234,0.692566 0.182262,-0.656117 0.440634,-1.298302 0.890914,-1.819337 0.587505,0.11257 1.169642,0.253013 1.760364,0.347358 -0.512454,-0.316266 -1.084947,-0.518892 -1.628497,-0.778335 -0.06226,-0.678637 0.108273,-1.351898 0.368791,-1.97372 -0.214416,0.109363 -0.429904,0.218713 -0.646467,0.323782 m 2.167767,2.478666 c 0.285169,1.018485 0.65182,2.013375 0.960588,3.024352 1.058149,0.0034 2.116295,0.009 3.173375,-0.0022 0.311979,-1.001337 0.644331,-1.995156 0.969171,-2.992198 -0.8373,-0.642183 -1.706769,-1.238267 -2.550496,-1.8708 -0.857672,0.604663 -1.693905,1.23827 -2.552638,1.840782 z m 81.763824,-1.585617 c 0.87382,-0.218714 1.84721,-0.114722 2.62882,0.346275 0.8298,0.495313 1.29082,1.440893 1.38617,2.378967 0.12868,0.947722 -0.12759,1.952269 -0.74945,2.687723 -0.86946,1.062441 -2.48399,1.388357 -3.71904,0.820146 -0.82125,-0.378444 -1.36051,-1.202877 -1.55026,-2.068055 -0.21977,-1.016337 -0.0952,-2.138816 0.47068,-3.0265 0.34742,-0.552128 0.90055,-0.970247 1.53308,-1.138556 z m -34.51156,0.225133 c 0.994896,-0.15331 2.064839,0.132942 2.79922,0.833016 1.300442,1.236112 1.409794,3.512157 0.21656,4.856555 -1.109609,1.272568 -3.258072,1.556673 -4.574598,0.445986 -1.366914,-1.190015 -1.60813,-3.467129 -0.531755,-4.923023 0.492089,-0.668987 1.272568,-1.099967 2.090573,-1.212534 z m 51.36167,0.01186 c 0.99587,-0.173681 2.07985,0.09005 2.83128,0.782627 1.33267,1.218962 1.46239,3.514298 0.27349,4.87585 -1.09793,1.280072 -3.24095,1.580257 -4.56716,0.485654 -1.19746,-1.015263 -1.52986,-2.848534 -0.93911,-4.273339 0.40099,-0.990606 1.34753,-1.714265 2.4015,-1.870792 z"
     fill="#ffffff"
     id="path10"
     style="stroke-width:0.107217" />
  <path
     d="m 26.677647,0.80411864 c 0.516746,-0.1565253 1.050649,-0.2562295 1.593121,-0.2219224 0.467429,2.46044066 0.917708,4.92302596 1.378708,7.38453946 0.04075,0.1747504 0.0719,0.4534928 -0.187616,0.4470604 -2.266399,0.4191865 -4.353749,1.7614319 -5.626316,3.6901209 -0.161881,0.229423 -0.273378,0.499596 -0.482436,0.692569 -0.26374,-0.05467 -0.482436,-0.222994 -0.714009,-0.350574 -1.782892,-1.040996 -3.568992,-2.076634 -5.354015,-3.1144104 -0.269097,-0.15974 -0.555338,-0.294823 -0.795489,-0.4974472 -0.0034,-0.1168575 0.02892,-0.2262107 0.09652,-0.3259146 C 18.762462,4.7451121 22.4751,1.9137284 26.677679,0.80411864 Z"
     fill="#7c227c"
     id="path12"
     style="stroke-width:0.107217" />
  <path
     d="m 30.104041,2.5559088 c 4.78794,-0.7815509 9.879286,0.7054337 13.513659,3.9131202 0.123293,0.091132 0.140445,0.2605176 0.01501,0.3580774 -1.597412,1.8622163 -3.213048,3.7083496 -4.813676,5.5684216 -0.119,0.159735 -0.345204,0.341996 -0.507092,0.122213 -1.548095,-1.345472 -3.581841,-2.116296 -5.633819,-2.112014 -0.542477,-0.01816 -1.076382,0.09968 -1.617783,0.09228 -0.384872,-2.5140772 -0.745102,-5.0324111 -1.121398,-7.547529 -0.0343,-0.1447357 -0.04076,-0.392388 0.1651,-0.394533 z"
     fill="#c32b26"
     id="path14"
     style="stroke-width:0.107217" />
  <path
     d="m 98.140877,7.6301 c 1.205005,-0.3119775 2.569783,0.3891678 2.994313,1.5631036 0.32056,0.8351534 0.15653,1.8289754 -0.40525,2.5226134 -0.68185,0.874835 -1.95975,1.221111 -2.984664,0.785853 -1.048509,-0.406333 -1.686395,-1.584548 -1.527728,-2.6866554 0.1115,-1.0313481 0.912349,-1.9469111 1.923329,-2.1849146 z m -41.62703,2.606241 c 1.515937,-0.01008 3.031866,-0.0078 4.546728,-0.0011 -0.01186,4.487762 0.0045,8.975522 -0.0078,13.462207 1.830054,0.01928 3.66118,0.0011 5.492303,0.01 -0.0045,1.322958 0.0034,2.644841 -0.0045,3.967797 -3.340622,-0.0056 -6.681251,0.0011 -10.021877,-0.0034 -0.0022,-5.811788 0.0066,-11.623574 -0.0056,-17.435363 z m 28.19055,-0.0011 c 1.515936,-0.0056 3.031866,-0.01186 4.547794,0.0045 -0.01726,4.485616 0.0032,8.972301 -0.01073,13.45899 1.828992,0.01816 3.657969,-0.0011 5.486948,0.01008 -0.0042,1.321883 0,2.643767 -0.002,3.965651 -3.339553,-0.0011 -6.679105,0 -10.017587,-0.0011 -0.0034,-5.812859 0.0045,-11.624647 -0.0045,-17.437505 z m -15.763981,5.700285 c 0.992756,-1.263989 2.446504,-2.17526 4.039627,-2.435778 1.112827,-0.173677 2.298555,-0.109359 3.327761,0.382733 0.643252,0.299114 1.192163,0.755825 1.729276,1.211455 0.0066,-0.468501 0.0034,-0.938073 0.0056,-1.40658 1.3905,0 2.780998,0.0011 4.171496,-0.0011 0.01501,4.662504 0.01612,9.326086 -0.0011,13.988596 -1.414082,-0.0078 -2.828167,0.0078 -4.242254,-0.009 0.0045,-0.445988 0.0022,-0.891975 0.009,-1.337965 -1.043137,1.007765 -2.456148,1.629572 -3.90883,1.682107 -1.737854,0.08043 -3.546464,-0.491016 -4.784724,-1.743216 -1.317563,-1.305777 -1.915789,-3.180856 -1.988691,-5.002336 -0.120072,-1.896523 0.453494,-3.840218 1.643507,-5.329346 m 5.392602,1.440883 c -0.818004,0.112571 -1.598483,0.54355 -2.090571,1.212531 -1.076376,1.455895 -0.835157,3.733011 0.531755,4.923028 1.316525,1.110683 3.464989,0.826579 4.574599,-0.445988 1.193233,-1.344399 1.08388,-3.620441 -0.216562,-4.856558 -0.73438,-0.700073 -1.804322,-0.986318 -2.799221,-0.833013 z m 30.544804,-2.501138 c 1.95116,-1.821472 5.30248,-2.013377 7.34488,-0.240146 0.22516,0.191906 0.43844,0.396672 0.64857,0.60573 0,-0.51889 -0.003,-1.037782 0.003,-1.555599 1.34658,0.0066 2.69206,0 4.03866,0.0034 -0.003,4.137187 0.002,8.274374 -0.003,12.411561 -0.003,1.625282 -0.55099,3.292379 -1.7143,4.45774 -1.35083,1.38728 -3.32458,2.001585 -5.2254,2.033748 -1.88678,0.0354 -3.86694,-0.443841 -5.32397,-1.694969 -0.94989,-0.799778 -1.56956,-1.957632 -1.75076,-3.183026 1.57384,0.0022 3.14775,-0.01283 4.72154,0.0078 0.33232,0.420259 0.6786,0.893047 1.23617,1.022774 0.77179,0.172608 1.60161,0.14473 2.35317,-0.111498 0.60891,-0.214415 1.17074,-0.664696 1.3744,-1.295083 0.16401,-0.558559 0.10727,-1.148206 0.0919,-1.721773 -1.16648,0.975601 -2.65132,1.656378 -4.19507,1.600625 -1.46242,-0.03316 -2.9043,-0.645397 -3.92069,-1.7014 -1.34229,-1.3637 -1.95445,-3.31811 -1.92658,-5.204989 0.0162,-2.002655 0.7451,-4.06535 2.24716,-5.434406 m 3.9667,2.276041 c -0.63251,0.168311 -1.18568,0.586429 -1.53305,1.138555 -0.56613,0.887691 -0.69046,2.01017 -0.4707,3.0265 0.18975,0.86518 0.729,1.689611 1.55026,2.068057 1.23504,0.568213 2.84959,0.242297 3.71903,-0.820145 0.62185,-0.735454 0.87813,-1.74 0.74945,-2.687718 -0.0952,-0.938076 -0.55638,-1.883658 -1.38617,-2.378969 -0.78151,-0.460998 -1.75491,-0.564991 -2.62872,-0.34628 z m 13.16632,-2.712388 c 1.39589,-0.916627 3.16384,-1.244684 4.79441,-0.883399 1.03243,0.226218 1.90612,0.86518 2.68347,1.555599 -9.8e-4,-0.47493 -9.8e-4,-0.949862 0.002,-1.4248 1.39275,0.0078 2.78531,-0.0078 4.17911,0.0078 v 13.976673 c -1.42051,0.0045 -2.84104,0.0011 -4.26159,0.0034 -9.7e-4,-0.443845 -9.7e-4,-0.88769 -9.7e-4,-1.331533 -0.47808,0.435266 -1.00454,0.82229 -1.59204,1.094602 -1.56848,0.757963 -3.44029,0.741884 -5.0581,0.142587 -1.49447,-0.55427 -2.70376,-1.76144 -3.33415,-3.218407 -0.65616,-1.504139 -0.83736,-3.202326 -0.61223,-4.82225 0.30779,-2.040183 1.46016,-3.967798 3.20015,-5.099922 m 3.6838,2.949312 c -1.05396,0.156528 -2.0005,0.880186 -2.4015,1.870794 -0.59074,1.424803 -0.25837,3.258075 0.93911,4.273341 1.32623,1.094601 3.46924,0.794416 4.56718,-0.485655 1.18887,-1.361551 1.05917,-3.656891 -0.2735,-4.875852 -0.75142,-0.692571 -1.83542,-0.956305 -2.83129,-0.782628 z m -29.093629,-3.70119 c 1.407649,0.0011 2.815276,-0.0011 4.224009,0.0011 -0.002,4.661434 -0.002,9.322871 -9.8e-4,13.984309 -1.407653,0.0011 -2.814206,-0.0011 -4.221865,0.0011 -9.8e-4,-4.662505 0,-9.323947 -9.8e-4,-13.986452 z"
     fill="#1f1e21"
     id="path16"
     style="stroke-width:0.107217" />
  <path
     d="m 13.754707,8.8790823 c 0.146872,-0.016085 0.273378,0.093268 0.403106,0.1468757 2.133454,1.155704 4.277632,2.289975 6.410008,3.446759 0.204773,0.06219 0.206908,0.281964 0.09544,0.429912 -1.104239,2.053045 -1.327234,4.563868 -0.572494,6.772374 0.06752,0.209057 0.165106,0.412749 0.18762,0.634671 -0.05251,0.14902 -0.231576,0.166176 -0.352727,0.232646 -2.253525,0.859814 -4.501698,1.732493 -6.751999,2.598744 -0.13831,0.04188 -0.35593,0.140442 -0.404182,-0.06542 -1.81828,-4.463091 -1.487006,-9.715249 0.784755,-13.9564204 a 0.62395509,0.62395501 0 0 1 0.200479,-0.2401474 z"
     fill="#3c5399"
     id="path18"
     style="stroke-width:0.107217" />
  <path
     d="m 43.079517,9.3711696 c 0.116853,-0.131867 0.283028,-0.06754 0.378447,0.05146 3.526093,3.3041694 5.490159,8.2089714 5.180325,13.0333704 0.01816,0.230499 -0.26695,0.177967 -0.409539,0.184395 -2.465802,-0.126506 -4.933745,-0.23478 -7.39848,-0.364508 -0.250864,0.01612 -0.220846,-0.293749 -0.217631,-0.460996 0.05354,-1.322953 -0.221923,-2.653414 -0.769757,-3.858443 -0.485655,-1.109607 -1.260779,-2.056263 -2.117374,-2.901072 0.142586,-0.177968 0.285178,-0.35486 0.441703,-0.519964 1.644582,-1.715333 3.265573,-3.453195 4.912306,-5.1642394 z"
     fill="#d57c2c"
     id="path20"
     style="stroke-width:0.107217" />
  <path
     d="m 28.440154,13.409725 c 1.275791,-0.240149 2.628767,-0.08691 3.808058,0.462066 1.534156,0.70114 2.761698,2.044475 3.31275,3.639735 0.563919,1.594194 0.447062,3.418893 -0.32913,4.923034 -0.700071,1.387274 -1.935117,2.496884 -3.392086,3.040434 -1.236118,0.469575 -2.621252,0.529612 -3.893819,0.175824 -1.638144,-0.44599 -3.0651,-1.593121 -3.863801,-3.089753 -0.74082,-1.359414 -0.93593,-2.999701 -0.560707,-4.500626 0.559631,-2.328575 2.561221,-4.224031 4.918735,-4.650714 m -3.527165,2.848538 c 0.216563,-0.105069 0.432051,-0.214419 0.646467,-0.323782 -0.260518,0.621822 -0.430977,1.295083 -0.368791,1.97372 0.54355,0.259443 1.116043,0.462069 1.628497,0.778335 -0.590722,-0.09432 -1.172859,-0.234788 -1.760364,-0.347358 -0.45028,0.521035 -0.708652,1.16322 -0.890914,1.819337 -0.116851,-0.227289 -0.231568,-0.456712 -0.33234,-0.692566 0.0078,1.29508 0.415968,2.576221 1.187868,3.618289 -0.05466,-0.25087 -0.1029,-0.502808 -0.151157,-0.754747 0.522103,0.438484 1.110677,0.822289 1.789308,0.95952 0.405259,-0.439559 0.780475,-0.909134 1.225396,-1.310092 -0.249794,0.543547 -0.573565,1.046355 -0.86196,1.569533 0.337712,0.606802 0.887692,1.047429 1.466615,1.411939 -0.248718,0.03651 -0.497445,0.06967 -0.746171,0.106139 0.629318,0.162955 1.27257,0.308762 1.926545,0.295894 0.621809,0 1.231829,-0.143656 1.831126,-0.293747 -0.246578,-0.03651 -0.494232,-0.07079 -0.740816,-0.107213 0.57572,-0.366654 1.121404,-0.80621 1.463399,-1.409792 -0.285168,-0.524255 -0.612155,-1.028131 -0.863029,-1.570606 0.445989,0.399883 0.821222,0.870534 1.22754,1.309018 0.67756,-0.140446 1.265066,-0.523186 1.788242,-0.960593 -0.04817,0.248723 -0.09655,0.497447 -0.147945,0.746174 0.7719,-1.035634 1.164286,-2.311428 1.187871,-3.596854 -0.11257,0.221917 -0.218699,0.447061 -0.328056,0.671129 -0.204769,-0.646469 -0.442772,-1.29294 -0.898414,-1.809689 -0.589648,0.114716 -1.173934,0.256231 -1.767865,0.348426 0.518884,-0.311976 1.091378,-0.521033 1.637079,-0.77833 0.05781,-0.679707 -0.108288,-1.354044 -0.370947,-1.975866 0.213347,0.109363 0.425616,0.216564 0.642177,0.320556 -0.732231,-1.052781 -1.834337,-1.792526 -3.035079,-2.212782 0.188693,0.182253 0.368802,0.37415 0.551053,0.563919 -0.674337,-0.06115 -1.367983,-0.01612 -1.994086,0.261591 -0.08467,0.603583 -0.116851,1.214666 -0.234781,1.81397 -0.09117,-0.600368 -0.141515,-1.206101 -0.216561,-1.808614 -0.626103,-0.285181 -1.324026,-0.328058 -2.000519,-0.266947 0.196189,-0.211207 0.395597,-0.421337 0.629315,-0.593936 -1.230758,0.423475 -2.369313,1.165354 -3.118703,2.246025 z"
     fill="#010000"
     id="path22"
     style="stroke-width:0.107217" />
  <path
     d="m 27.080756,18.736929 c 0.858733,-0.602513 1.694966,-1.236118 2.552638,-1.84078 0.843727,0.632533 1.713196,1.228614 2.550496,1.870797 -0.32484,0.997042 -0.657192,1.990862 -0.969171,2.992194 -1.05708,0.01073 -2.115226,0.0056 -3.173375,0.0022 -0.308768,-1.010977 -0.675419,-2.005874 -0.960588,-3.024358 z"
     fill="#020001"
     id="path24"
     style="stroke-width:0.107217" />
  <path
     d="m 17.784678,22.45385 c 0.2423,-0.108276 0.486736,-0.217633 0.748325,-0.27338 0.199408,0.232646 0.301251,0.528542 0.441691,0.797637 1.074241,2.114156 3.081181,3.68047 5.347577,4.335517 -0.04717,0.225145 -0.09432,0.451348 -0.158667,0.672205 -0.621818,1.962989 -1.227537,3.930269 -1.841853,5.895405 -0.103992,0.326987 -0.179037,0.665766 -0.326988,0.976672 -0.109348,0.153311 -0.289462,0.04503 -0.432051,0.01816 -4.604614,-1.439802 -8.4995,-4.990557 -10.325271,-9.459018 v -0.09654 c 2.159188,-1.004525 4.370907,-1.897574 6.547237,-2.866743 z"
     fill="#5b82bd"
     id="path26"
     style="stroke-width:0.107217" />
  <path
     d="m 38.267983,23.212887 c 0.15867,-0.08043 0.340928,-0.03651 0.511389,-0.03317 2.473303,0.207986 4.949825,0.372014 7.422061,0.589644 0.01283,0.129727 0.02039,0.260517 0.02352,0.392386 -0.352714,4.776152 -2.921436,9.332522 -6.8099,12.125312 -0.172606,0.168317 -0.350575,-0.03651 -0.444917,-0.175822 -1.44517,-1.988723 -2.913932,-3.962438 -4.354817,-5.954374 -0.176894,-0.174751 0.01501,-0.352719 0.159747,-0.453493 1.748571,-1.286505 2.958952,-3.269871 3.328828,-5.407609 0.06966,-0.359149 0.05152,-0.733314 0.164027,-1.082814 z"
     fill="#f8e437"
     id="path28"
     style="stroke-width:0.107217" />
  <path
     d="m 32.159229,28.597985 c 0.139374,-0.09544 0.235863,0.0932 0.311977,0.179039 1.351911,2.004805 2.693087,4.018184 4.044992,6.022992 0.06431,0.09432 0.120074,0.194048 0.17046,0.296965 0.0066,0.160814 -0.160813,0.231573 -0.264807,0.318409 -2.089501,1.382993 -4.490973,2.291053 -6.973926,2.624474 -0.420266,0.08468 -0.848024,0.114713 -1.275791,0.06542 -0.85874,0.0078 -1.720699,-0.04077 -2.574081,0.05783 -0.992752,-0.202624 -2.016597,-0.287318 -2.978264,-0.623952 -0.175814,-0.04817 -0.08467,-0.271241 -0.06431,-0.396673 0.656121,-2.353234 1.298295,-4.711829 1.95334,-7.066128 0.0056,-0.244439 0.248726,-0.329133 0.445993,-0.230497 1.575972,0.432048 3.274154,0.391308 4.831892,-0.100804 0.850172,-0.248719 1.619929,-0.69257 2.372532,-1.147131 z"
     fill="#61a244"
     id="path30"
     style="stroke-width:0.107217" />
</svg>
