<?xml version="1.0" encoding="UTF-8" standalone="no"?>
<svg
   xmlns:dc="http://purl.org/dc/elements/1.1/"
   xmlns:cc="http://creativecommons.org/ns#"
   xmlns:rdf="http://www.w3.org/1999/02/22-rdf-syntax-ns#"
   xmlns:svg="http://www.w3.org/2000/svg"
   xmlns="http://www.w3.org/2000/svg"
   xmlns:sodipodi="http://sodipodi.sourceforge.net/DTD/sodipodi-0.dtd"
   xmlns:inkscape="http://www.inkscape.org/namespaces/inkscape"
   id="Capa_1"
   viewBox="0 0 200 50"
   version="1.1"
   sodipodi:docname="realmadrid.svg"
   width="200"
   height="50"
   inkscape:version="1.0 (4035a4f, 2020-05-01)">
  <metadata
     id="metadata203">
    <rdf:RDF>
      <cc:Work
         rdf:about="">
        <dc:format>image/svg+xml</dc:format>
        <dc:type
           rdf:resource="http://purl.org/dc/dcmitype/StillImage" />
        <dc:title></dc:title>
      </cc:Work>
    </rdf:RDF>
  </metadata>
  <defs
     id="defs201" />
  <sodipodi:namedview
     inkscape:document-rotation="0"
     pagecolor="#ffffff"
     bordercolor="#666666"
     borderopacity="1"
     objecttolerance="10"
     gridtolerance="10"
     guidetolerance="10"
     inkscape:pageopacity="0"
     inkscape:pageshadow="2"
     inkscape:window-width="1831"
     inkscape:window-height="878"
     id="namedview199"
     showgrid="false"
     fit-margin-top="0"
     fit-margin-left="0"
     fit-margin-right="0"
     fit-margin-bottom="0"
     inkscape:zoom="6.0809249"
     inkscape:cx="84.69"
     inkscape:cy="27.53"
     inkscape:window-x="25"
     inkscape:window-y="23"
     inkscape:window-maximized="0"
     inkscape:current-layer="Capa_1" />
  <style
     id="style186">.st1{fill:#e62644}.st3{fill:#004996}</style>
  <path
     d="m 48.221639,14.501538 c -0.208069,0 -0.379953,-0.171884 -0.379953,-0.379953 0,-0.20807 0.171884,-0.379953 0.379953,-0.379953 0.20807,0 0.379953,0.171883 0.379953,0.379953 0,0.208069 -0.171883,0.379953 -0.379953,0.379953 z m -22.45341,17.541161 c 0,-8.386104 6.893432,-15.207164 15.315723,-15.207164 8.42229,0 15.315722,6.82106 15.315722,15.207164 0,8.368012 -6.893432,15.207165 -15.315722,15.207165 -8.422291,0 -15.315723,-6.848199 -15.315723,-15.207165 z M 47.090827,8.829383 c 0.36186,0.090465 0.588022,0.4613715 0.488511,0.823231 -0.09046,0.36186 -0.461372,0.578976 -0.832278,0.488511 -0.36186,-0.09047 -0.588023,-0.461371 -0.488511,-0.823231 0.09046,-0.36186 0.461371,-0.578976 0.832278,-0.488511 z m 0.615162,-1.3298353 c 0.208069,0 0.379953,0.1718835 0.379953,0.3799529 0,0.2080695 -0.171884,0.379953 -0.379953,0.379953 -0.20807,0 -0.379953,-0.1718835 -0.379953,-0.379953 0,-0.2080694 0.171883,-0.3799529 0.379953,-0.3799529 z M 47.389361,6.1425728 c 0.20807,0 0.379953,0.1718835 0.379953,0.379953 0,0.2080695 -0.171883,0.3799529 -0.379953,0.3799529 -0.208069,0 -0.379953,-0.1718834 -0.379953,-0.3799529 0,-0.2080695 0.171884,-0.379953 0.379953,-0.379953 z m 4.713226,3.5643202 c 0.20807,0 0.379953,0.171884 0.379953,0.379953 0,0.20807 -0.171883,0.379953 -0.379953,0.379953 -0.208069,0 -0.379953,-0.171883 -0.379953,-0.379953 0,-0.208069 0.162837,-0.379953 0.379953,-0.379953 z M 51.78596,8.3589651 c 0.208069,0 0.379953,0.1718835 0.379953,0.3799529 0,0.2080695 -0.171884,0.379953 -0.379953,0.379953 -0.20807,0 -0.379953,-0.1718835 -0.379953,-0.379953 0,-0.2080694 0.171883,-0.3799529 0.379953,-0.3799529 z M 51.21603,7.1738737 c 0.20807,0 0.379953,0.1718835 0.379953,0.379953 0,0.2080694 -0.171883,0.3709064 -0.379953,0.3709064 -0.208069,0 -0.379953,-0.1718835 -0.379953,-0.3799529 0,-0.2080695 0.171884,-0.3709065 0.379953,-0.3709065 z M 50.320427,6.1244798 c 0.208069,0 0.379953,0.1718835 0.379953,0.379953 0,0.2080695 -0.171884,0.3799529 -0.379953,0.3799529 -0.208069,0 -0.379953,-0.1718834 -0.379953,-0.3799529 0,-0.2080695 0.162837,-0.379953 0.379953,-0.379953 z M 49.207708,5.3193414 c 0.208069,0 0.379953,0.1718835 0.379953,0.379953 0,0.2080695 -0.171884,0.3799529 -0.379953,0.3799529 -0.20807,0 -0.379953,-0.1718834 -0.379953,-0.3799529 0,-0.2080695 0.171883,-0.379953 0.379953,-0.379953 z M 48.01357,4.85797 c 0.208069,0 0.379953,0.1718834 0.379953,0.3799529 0,0.2080695 -0.171884,0.379953 -0.379953,0.379953 -0.20807,0 -0.379953,-0.1718835 -0.379953,-0.379953 0,-0.2080695 0.171883,-0.3799529 0.379953,-0.3799529 z m -1.212231,0.099512 c 0.208069,0 0.379953,0.1718834 0.379953,0.3799529 0,0.2080695 -0.171884,0.379953 -0.379953,0.379953 -0.20807,0 -0.379953,-0.1718835 -0.379953,-0.379953 A 0.37090646,0.37090646 0 0 1 46.801339,4.957482 Z M 45.905735,3.9352271 c 0.20807,0 0.379953,0.1718834 0.379953,0.3799529 0,0.2080695 -0.171883,0.379953 -0.379953,0.379953 -0.208069,0 -0.379952,-0.1718835 -0.379952,-0.379953 0,-0.2080695 0.171883,-0.3799529 0.379952,-0.3799529 z M 44.738737,3.1662747 c 0.20807,0 0.379953,0.1718834 0.379953,0.3799529 0,0.2080695 -0.171883,0.379953 -0.379953,0.379953 -0.208069,0 -0.379953,-0.1718835 -0.379953,-0.379953 0,-0.2080695 0.171884,-0.3799529 0.379953,-0.3799529 z M 43.526506,2.7229962 c 0.20807,0 0.379953,0.1718835 0.379953,0.379953 0,0.2080694 -0.171883,0.3799529 -0.379953,0.3799529 -0.208069,0 -0.379953,-0.1718835 -0.379953,-0.3799529 0,-0.217116 0.171884,-0.379953 0.379953,-0.379953 z m -1.23937,-0.217116 c 0.208069,0 0.379953,0.1718835 0.379953,0.379953 0,0.2080695 -0.171884,0.3799529 -0.379953,0.3799529 -0.20807,0 -0.379953,-0.1718834 -0.379953,-0.3799529 0,-0.2080695 0.171883,-0.379953 0.379953,-0.379953 z M 30.535734,12.438936 c -0.334721,0.18093 -0.75086,0.06333 -0.93179,-0.262348 -0.18093,-0.325674 -0.06333,-0.741813 0.271395,-0.922743 0.334721,-0.18093 0.75086,-0.06333 0.93179,0.271395 0.18093,0.325674 0.06333,0.732766 -0.271395,0.913696 z m 4.876063,-2.297811 A 0.68753392,0.68753392 0 0 1 34.579519,9.652614 c -0.09047,-0.3618595 0.126651,-0.732766 0.488511,-0.823231 0.36186,-0.090465 0.741813,0.126651 0.832278,0.488511 0.09951,0.36186 -0.117605,0.732766 -0.488511,0.823231 z m 5.672155,-0.7056265 c -0.379953,0 -0.687534,-0.307581 -0.687534,-0.6784875 0,-0.3709064 0.307581,-0.6784874 0.687534,-0.6784874 0.379952,0 0.687533,0.307581 0.687533,0.6784874 A 0.69658042,0.69658042 0 0 1 41.083952,9.4354985 Z M 34.452868,8.2504071 c -0.20807,0 -0.379953,-0.1718835 -0.379953,-0.379953 0,-0.2080694 0.171883,-0.3799529 0.379953,-0.3799529 0.208069,0 0.379953,0.1718835 0.379953,0.3799529 0,0.217116 -0.171884,0.379953 -0.379953,0.379953 z m 0.316627,-1.3479284 c -0.208069,0 -0.379953,-0.1718834 -0.379953,-0.3799529 0,-0.2080695 0.171884,-0.379953 0.379953,-0.379953 0.20807,0 0.379953,0.1718835 0.379953,0.379953 0,0.2080695 -0.171883,0.3799529 -0.379953,0.3799529 z m -4.704179,3.5643203 c -0.20807,0 -0.379953,-0.171883 -0.379953,-0.379953 0,-0.208069 0.171883,-0.379953 0.379953,-0.379953 0.208069,0 0.379953,0.171884 0.379953,0.379953 0,0.20807 -0.171884,0.379953 -0.379953,0.379953 z m 0.316627,-1.3569745 c -0.208069,0 -0.379953,-0.1718835 -0.379953,-0.379953 0,-0.2080694 0.171884,-0.3799529 0.379953,-0.3799529 0.20807,0 0.379953,0.1718835 0.379953,0.3799529 0,0.217116 -0.171883,0.379953 -0.379953,0.379953 z m 0.560883,-1.1850914 c -0.208069,0 -0.379953,-0.1718835 -0.379953,-0.3799529 0,-0.2080695 0.171884,-0.379953 0.379953,-0.379953 0.20807,0 0.379953,0.1718835 0.379953,0.379953 0,0.2080694 -0.162837,0.3799529 -0.379953,0.3799529 z m 0.90465,-1.0493939 c -0.208069,0 -0.379953,-0.1718834 -0.379953,-0.3799529 0,-0.2080695 0.171884,-0.379953 0.379953,-0.379953 0.20807,0 0.379953,0.1718835 0.379953,0.379953 0,0.2080695 -0.171883,0.3799529 -0.379953,0.3799529 z m 1.112719,-0.7960919 c -0.208069,0 -0.379953,-0.1718834 -0.379953,-0.3799529 0,-0.2080695 0.171884,-0.379953 0.379953,-0.379953 0.20807,0 0.379953,0.1718835 0.379953,0.379953 0,0.2080695 -0.171883,0.3799529 -0.379953,0.3799529 z m 1.185092,-0.4704179 c -0.20807,0 -0.379953,-0.1718835 -0.379953,-0.379953 0,-0.2080695 0.171883,-0.3799529 0.379953,-0.3799529 0.208069,0 0.379953,0.1718834 0.379953,0.3799529 0.009,0.217116 -0.162837,0.379953 -0.379953,0.379953 z m 1.221277,0.108558 c -0.208069,0 -0.379953,-0.1718835 -0.379953,-0.379953 0,-0.2080695 0.171884,-0.3799529 0.379953,-0.3799529 0.20807,0 0.379953,0.1718834 0.379953,0.3799529 0,0.2080695 -0.171883,0.379953 -0.379953,0.379953 z M 36.262168,4.695133 c -0.20807,0 -0.379953,-0.1718835 -0.379953,-0.379953 0,-0.2080695 0.171883,-0.3799529 0.379953,-0.3799529 0.208069,0 0.379952,0.1718834 0.379952,0.3799529 a 0.38899946,0.38899946 0 0 1 -0.379952,0.379953 z m 1.157951,-0.7689524 c -0.208069,0 -0.379953,-0.1718835 -0.379953,-0.379953 0,-0.2080695 0.171884,-0.3799529 0.379953,-0.3799529 0.20807,0 0.379953,0.1718834 0.379953,0.3799529 0,0.2080695 -0.162837,0.379953 -0.379953,0.379953 z m 1.212231,-0.452325 c -0.208069,0 -0.379953,-0.1718835 -0.379953,-0.3799529 0,-0.2080695 0.171884,-0.379953 0.379953,-0.379953 0.20807,0 0.379953,0.1718835 0.379953,0.379953 0,0.2171159 -0.171883,0.3799529 -0.379953,0.3799529 z m 2.451602,3.7000181 c -0.20807,0 -0.379953,-0.1718835 -0.379953,-0.3799529 0,-0.2080695 0.171883,-0.379953 0.379953,-0.379953 0.208069,0 0.379952,0.1718835 0.379952,0.379953 0,0.2080694 -0.171883,0.3799529 -0.379952,0.3799529 z m 0,-1.3660213 c -0.20807,0 -0.379953,-0.1718835 -0.379953,-0.379953 0,-0.2080695 0.171883,-0.379953 0.379953,-0.379953 0.208069,0 0.379952,0.1718835 0.379952,0.379953 0,0.2080695 -0.171883,0.379953 -0.379952,0.379953 z m 0,-1.3750679 c -0.20807,0 -0.379953,-0.1718835 -0.379953,-0.3799529 0,-0.2080695 0.171883,-0.379953 0.379953,-0.379953 0.208069,0 0.379952,0.1718835 0.379952,0.379953 0,0.2171159 -0.171883,0.3799529 -0.379952,0.3799529 z M 39.880767,3.2657861 c -0.208069,0 -0.379953,-0.1718834 -0.379953,-0.3799529 0,-0.2080695 0.171884,-0.379953 0.379953,-0.379953 0.20807,0 0.379953,0.1718835 0.379953,0.379953 a 0.38899946,0.38899946 0 0 1 -0.379953,0.3799529 z m 12.40275,7.9880589 c 0.334721,0.18093 0.452325,0.588022 0.271395,0.922743 -0.18093,0.325674 -0.597069,0.443278 -0.931789,0.262348 -0.325674,-0.18093 -0.452325,-0.597069 -0.271395,-0.922743 0.18093,-0.325674 0.597069,-0.443278 0.931789,-0.262348 z m -8.766057,1.981183 c -0.20807,0 -0.379953,-0.171883 -0.379953,-0.379953 0,-0.208069 0.171883,-0.379953 0.379953,-0.379953 0.208069,0 0.379953,0.171884 0.379953,0.379953 0,0.20807 -0.162837,0.379953 -0.379953,0.379953 z m -9.580243,1.26651 c -0.208069,0 -0.379953,-0.171884 -0.379953,-0.379953 0,-0.20807 0.171884,-0.379953 0.379953,-0.379953 0.20807,0 0.379953,0.171883 0.379953,0.379953 0,0.208069 -0.171883,0.379953 -0.379953,0.379953 z m 4.70418,-1.26651 c -0.20807,0 -0.379953,-0.171883 -0.379953,-0.379953 0,-0.208069 0.171883,-0.379953 0.379953,-0.379953 0.208069,0 0.379953,0.171884 0.379953,0.379953 0,0.20807 -0.171884,0.379953 -0.379953,0.379953 z"
     fill="#ffffff"
     id="path188"
     style="stroke-width:0.90465" />
  <path
     class="st1"
     d="m 43.906459,10.512032 c 0.09951,0.226162 0.226163,0.398046 0.379953,0.54279 -0.343767,-0.05428 -0.69658,-0.09951 -1.049394,-0.126651 0.199023,-0.108558 0.370907,-0.262349 0.497558,-0.434232 0.05428,0.009 0.117604,0.01809 0.171883,0.01809 z m -5.654062,0 c 0.06333,0 0.117605,-0.009 0.171884,-0.01809 0.135697,0.18093 0.307581,0.325674 0.497557,0.434232 -0.352813,0.03619 -0.69658,0.08142 -1.049394,0.126651 0.171884,-0.144744 0.298535,-0.334721 0.379953,-0.54279 z m -2.035462,0.868464 c -0.307581,0.07237 -0.615162,0.144744 -0.913696,0.235209 0.162837,-0.20807 0.262348,-0.461372 0.298534,-0.732767 0.162837,0.217116 0.370907,0.389 0.615162,0.497558 z m -3.491949,1.130812 c 0.09047,-0.144744 0.162837,-0.307581 0.199023,-0.479464 l 0.05428,-0.009 c 0.09047,-0.02714 0.171884,-0.06332 0.253302,-0.108558 0.144744,0.09951 0.307581,0.171884 0.470418,0.217116 -0.33472,0.117605 -0.660394,0.244256 -0.977022,0.379953 z m 8.358966,-2.32495 c 0.09951,0.253302 0.262348,0.479464 0.479464,0.642301 -0.162837,0 -0.316628,-0.009 -0.479464,-0.009 -0.162837,0 -0.316628,0 -0.479465,0.009 0.217116,-0.162837 0.379953,-0.379953 0.479465,-0.642301 z m 7.852361,1.727881 c 0.07237,0.04523 0.162837,0.09046 0.253302,0.108558 l 0.05428,0.009 c 0.03619,0.171883 0.108558,0.33472 0.199023,0.479464 -0.316628,-0.135697 -0.642302,-0.262348 -0.977022,-0.379953 0.171883,-0.05428 0.325674,-0.117604 0.470418,-0.217116 z m -2.080695,-0.307581 c -0.298535,-0.08142 -0.606116,-0.162837 -0.913697,-0.235209 0.244256,-0.108558 0.461372,-0.280441 0.615162,-0.497557 0.02714,0.271395 0.135698,0.524697 0.298535,0.732766 z m 1.185091,-2.9491585 c 0.253302,-0.1085579 0.452325,-0.3347204 0.506604,-0.6151619 0.407093,0.090465 0.868464,0.2080695 1.248417,0.3528135 0.352814,0.1356975 0.633255,0.3256739 0.832278,0.4975574 0.208069,0.524697 0.325674,1.1308125 0.379953,1.8635785 -0.253302,0.108558 -0.407093,0.36186 -0.497558,0.615162 -0.15379,0.389 -0.15379,0.787046 0.271395,1.08558 a 0.67215488,0.67215488 0 0 1 -0.714673,-0.705627 c 0.08142,-0.09047 0.135698,-0.208069 0.171884,-0.33472 a 0.85350528,0.85350528 0 0 0 -1.65551,-0.416139 c -0.009,0.05428 -0.01809,0.09951 -0.02714,0.144744 -0.389,0.470418 -1.166999,0.226162 -1.203185,-0.389 0.714674,0.144744 1.022255,-0.217116 1.139859,-0.69658 0.108558,-0.407093 0.06333,-0.8051385 -0.407092,-1.0584405 a 0.81418491,0.81418491 0 0 0 -0.04523,-0.343767 z"
     id="path190"
     style="stroke-width:0.90465" />
  <path
     class="st1"
     d="M 35.918401,6.9748507 C 37.275375,6.2239913 39.057536,6.0882938 40.44165,6.2963633 v 0.099512 a 0.73276642,0.73276642 0 0 0 0.162837,0.9770219 c -0.253302,0.090465 -0.452325,0.271395 -0.533743,0.6151619 -0.515651,0.126651 -0.651348,0.506604 -0.651348,0.9227429 0,0.4975575 0.199023,0.922742 0.931789,0.958929 a 0.67848743,0.67848743 0 1 1 -1.284603,0.01809 0.85127556,0.85127556 0 0 0 -0.832278,-1.067487 c -0.470418,0 -0.850371,0.379953 -0.850371,0.850371 0,0.144744 0.03619,0.280442 0.09951,0.407093 -0.01809,0.280441 -0.217116,0.533743 -0.506604,0.615162 A 0.68301067,0.68301067 0 0 1 36.235028,10.394427 C 36.931608,10.177311 37.022073,9.71594 36.895422,9.2364755 36.786864,8.829383 36.560702,8.4946626 36.026959,8.5037091 a 0.81147096,0.81147096 0 0 0 -0.379953,-0.379953 c 0.05428,-0.4070924 0.144744,-0.7870454 0.271395,-1.1489054 z m 5.798805,-0.6784874 c 1.384115,-0.199023 3.157229,-0.072372 4.52325,0.6784874 0.126651,0.36186 0.217116,0.741813 0.262348,1.1398589 -0.15379,0.072372 -0.280441,0.199023 -0.379953,0.379953 -0.533743,-0.00905 -0.759905,0.3256739 -0.868463,0.7327664 -0.126651,0.479464 -0.03619,0.940836 0.660394,1.157952 a 0.67396418,0.67396418 0 1 1 -1.248417,-0.316628 c 0.06333,-0.117604 0.09951,-0.253302 0.09951,-0.407092 0,-0.470418 -0.379953,-0.850371 -0.850371,-0.850371 a 0.85670346,0.85670346 0 0 0 -0.832278,1.067487 0.67848743,0.67848743 0 0 1 -1.284603,-0.01809 c 0.732766,-0.03619 0.931789,-0.4613715 0.931789,-0.958929 0,-0.4161389 -0.144744,-0.7960919 -0.651348,-0.9227429 C 41.997648,7.6442917 41.798625,7.4543152 41.545323,7.3638502 A 0.73276642,0.73276642 0 0 0 41.70816,6.3868283 v -0.090465 z m -9.345033,2.0987878 c 0.370906,-0.144744 0.841324,-0.271395 1.248417,-0.3528135 0.05428,0.2804415 0.244255,0.506604 0.506604,0.6151619 -0.03619,0.099511 -0.05428,0.217116 -0.05428,0.343767 -0.470418,0.2442555 -0.506604,0.6513475 -0.407093,1.0584405 0.126651,0.479464 0.425186,0.841324 1.139859,0.69658 -0.02714,0.615162 -0.814185,0.859418 -1.203184,0.389 0,-0.04523 -0.009,-0.09951 -0.02714,-0.144744 a 0.86032206,0.86032206 0 0 0 -1.040347,-0.615162 0.84403836,0.84403836 0 0 0 -0.443279,1.366021 c 0.01809,0.253302 -0.117604,0.497558 -0.352813,0.624209 -0.117604,0.06333 -0.244255,0.09047 -0.370906,0.08142 0.425185,-0.298534 0.416139,-0.69658 0.271395,-1.08558 -0.09951,-0.253302 -0.253302,-0.506604 -0.506604,-0.615162 0.06332,-0.732766 0.18093,-1.3388815 0.379953,-1.854532 0.226162,-0.18093 0.506604,-0.3618599 0.859417,-0.5066039 z m 9.924009,4.3423199 -1.221277,0.452325 -1.221277,-0.452325 1.221277,-0.452325 z m -9.155057,1.637416 -0.108558,0.425185 -0.04523,0.153791 -0.09047,-0.05428 -0.398046,-0.217116 0.108558,-0.407093 0.01809,-0.09047 0.144744,0.04523 z m 15.885653,0 0.51565,-0.189977 0.01809,0.09047 0.09951,0.416139 -0.398046,0.217116 -0.08142,0.04523 -0.04523,-0.153791 z"
     id="path192"
     style="stroke-width:0.90465" />
  <path
     d="m 46.855618,11.606658 c -0.162837,-0.208069 -0.262349,-0.461371 -0.298535,-0.732766 -0.15379,0.226162 -0.370906,0.398046 -0.615162,0.497557 0.307581,0.07237 0.615162,0.153791 0.913697,0.235209 z m 2.080695,0.307581 c -0.144744,0.09951 -0.307581,0.171884 -0.470418,0.217116 0.325674,0.117605 0.651348,0.244256 0.977022,0.379953 -0.09047,-0.144744 -0.162837,-0.307581 -0.199023,-0.479464 l -0.05428,-0.009 c -0.09046,-0.02714 -0.171884,-0.06332 -0.253302,-0.108558 z m -7.852361,-1.727881 c -0.09951,0.253302 -0.262349,0.479464 -0.479465,0.642301 0.153791,0 0.316628,-0.009 0.479465,-0.009 0.162836,0 0.316627,0 0.479464,0.009 -0.217116,-0.162837 -0.379953,-0.379953 -0.479464,-0.642301 z m -8.358966,2.32495 c 0.316628,-0.135697 0.642302,-0.262348 0.977022,-0.379953 -0.171883,-0.04523 -0.33472,-0.117604 -0.470418,-0.217116 -0.07237,0.04523 -0.162837,0.09046 -0.253302,0.108558 l -0.05428,0.009 c -0.04523,0.171883 -0.108558,0.33472 -0.199023,0.479464 z m 3.491949,-1.130812 c -0.244255,-0.108558 -0.461371,-0.280442 -0.615162,-0.497558 -0.02714,0.271395 -0.135697,0.524697 -0.298534,0.732767 0.307581,-0.09047 0.615162,-0.171884 0.913696,-0.235209 z m 2.035462,-0.868464 c -0.08142,0.208069 -0.208069,0.388999 -0.370906,0.54279 0.343767,-0.05428 0.69658,-0.09951 1.049394,-0.126651 -0.199023,-0.108558 -0.370907,-0.262349 -0.497558,-0.434232 -0.06332,0.009 -0.117604,0.01809 -0.18093,0.01809 z m 5.654062,0 c -0.05428,0 -0.117604,-0.009 -0.171883,-0.01809 -0.135698,0.18093 -0.307581,0.325674 -0.497558,0.434232 0.352814,0.03619 0.696581,0.08142 1.049394,0.126651 -0.15379,-0.144744 -0.271395,-0.316628 -0.36186,-0.506604 z m 8.377058,0.741813 a 0.67577348,0.67577348 0 0 0 -0.922743,0.271395 c -0.18093,0.325674 -0.06333,0.741813 0.271395,0.922743 0.334721,0.18093 0.75086,0.06333 0.93179,-0.262349 0.171883,-0.343767 0.04523,-0.750859 -0.280442,-0.931789 z m -5.19269,-2.424462 a 0.68753392,0.68753392 0 0 0 -0.832278,0.488511 c -0.09047,0.36186 0.126651,0.732766 0.488511,0.823231 0.370906,0.09047 0.741813,-0.126651 0.832278,-0.488511 A 0.67848743,0.67848743 0 0 0 47.090827,8.829383 Z m 0.615162,-1.3298353 c -0.20807,0 -0.379953,0.1718835 -0.379953,0.3799529 0,0.2080695 0.171883,0.379953 0.379953,0.379953 0.208069,0 0.379953,-0.1718835 0.379953,-0.379953 0,-0.2080694 -0.162837,-0.3799529 -0.379953,-0.3799529 z M 47.389361,6.1425728 c -0.208069,0 -0.379953,0.1718835 -0.379953,0.379953 0,0.2080695 0.171884,0.3799529 0.379953,0.3799529 0.20807,0 0.379953,-0.1718834 0.379953,-0.3799529 a 0.37090646,0.37090646 0 0 0 -0.379953,-0.379953 z m 4.713226,3.5643202 c -0.208069,0 -0.379953,0.171884 -0.379953,0.379953 0,0.20807 0.171884,0.379953 0.379953,0.379953 0.20807,0 0.379953,-0.171883 0.379953,-0.379953 0,-0.208069 -0.171883,-0.379953 -0.379953,-0.379953 z M 51.78596,8.3589651 c -0.20807,0 -0.379953,0.1718835 -0.379953,0.3799529 0,0.2080695 0.171883,0.379953 0.379953,0.379953 0.208069,0 0.379953,-0.1718835 0.379953,-0.379953 0,-0.2080694 -0.171884,-0.3799529 -0.379953,-0.3799529 z M 51.21603,7.1738737 c -0.208069,0 -0.379953,0.1718835 -0.379953,0.379953 0,0.2080694 0.171884,0.3709064 0.379953,0.3709064 0.20807,0 0.379953,-0.1718835 0.379953,-0.3799529 0,-0.2080695 -0.171883,-0.3709065 -0.379953,-0.3709065 z M 50.320427,6.1244798 c -0.208069,0 -0.379953,0.1718835 -0.379953,0.379953 0,0.2080695 0.171884,0.3799529 0.379953,0.3799529 0.208069,0 0.379953,-0.1718834 0.379953,-0.3799529 0,-0.2080695 -0.171884,-0.379953 -0.379953,-0.379953 z M 49.207708,5.3193414 c -0.20807,0 -0.379953,0.1718835 -0.379953,0.379953 0,0.2080695 0.171883,0.3799529 0.379953,0.3799529 0.208069,0 0.379953,-0.1718834 0.379953,-0.3799529 0,-0.2080695 -0.171884,-0.379953 -0.379953,-0.379953 z M 48.01357,4.85797 c -0.20807,0 -0.379953,0.1718834 -0.379953,0.3799529 0,0.2080695 0.171883,0.379953 0.379953,0.379953 0.208069,0 0.379953,-0.1718835 0.379953,-0.379953 0,-0.2080695 -0.171884,-0.3799529 -0.379953,-0.3799529 z m -1.212231,0.099512 c -0.20807,0 -0.379953,0.1718834 -0.379953,0.3799529 0,0.2080695 0.171883,0.379953 0.379953,0.379953 0.208069,0 0.379953,-0.1718835 0.379953,-0.379953 A 0.38899946,0.38899946 0 0 0 46.801339,4.957482 Z M 45.905735,3.9352271 c -0.208069,0 -0.379952,0.1718834 -0.379952,0.3799529 0,0.2080695 0.171883,0.379953 0.379952,0.379953 0.20807,0 0.379953,-0.1718835 0.379953,-0.379953 0,-0.2080695 -0.171883,-0.3799529 -0.379953,-0.3799529 z M 44.738737,3.1662747 c -0.208069,0 -0.379953,0.1718834 -0.379953,0.3799529 0,0.2080695 0.171884,0.379953 0.379953,0.379953 0.20807,0 0.379953,-0.1718835 0.379953,-0.379953 0,-0.2080695 -0.171883,-0.3799529 -0.379953,-0.3799529 z M 43.526506,2.7229962 c -0.208069,0 -0.379953,0.1718835 -0.379953,0.379953 0,0.2080694 0.171884,0.3799529 0.379953,0.3799529 0.20807,0 0.379953,-0.1718835 0.379953,-0.3799529 0,-0.2080695 -0.171883,-0.379953 -0.379953,-0.379953 z m -1.23937,-0.217116 c -0.20807,0 -0.379953,0.1718835 -0.379953,0.379953 0,0.2080695 0.171883,0.3799529 0.379953,0.3799529 0.208069,0 0.379953,-0.1718834 0.379953,-0.3799529 0,-0.2080695 -0.171884,-0.379953 -0.379953,-0.379953 z M 30.535734,12.438936 c 0.33472,-0.18093 0.452325,-0.597069 0.271395,-0.922743 -0.18093,-0.325674 -0.597069,-0.452325 -0.93179,-0.271395 -0.325674,0.18093 -0.452325,0.588023 -0.271395,0.922743 0.189977,0.334721 0.606116,0.452325 0.93179,0.271395 z m 4.876063,-2.297811 c 0.36186,-0.09047 0.588022,-0.461371 0.488511,-0.823231 A 0.68753392,0.68753392 0 0 0 35.06803,8.829383 c -0.36186,0.090465 -0.588023,0.4613715 -0.488511,0.823231 0.09951,0.370907 0.470418,0.588023 0.832278,0.488511 z m 5.672155,-0.7056265 c 0.379952,0 0.687533,-0.307581 0.687533,-0.6784875 0,-0.3709064 -0.307581,-0.6784874 -0.687533,-0.6784874 -0.379953,0 -0.687534,0.307581 -0.687534,0.6784874 0,0.3709065 0.307581,0.6784875 0.687534,0.6784875 z M 34.452868,8.2504071 c 0.208069,0 0.379953,-0.1718835 0.379953,-0.379953 0,-0.2080694 -0.171884,-0.3799529 -0.379953,-0.3799529 -0.20807,0 -0.379953,0.1718835 -0.379953,0.3799529 0,0.217116 0.171883,0.379953 0.379953,0.379953 z m 0.316627,-1.3479284 c 0.20807,0 0.379953,-0.1718834 0.379953,-0.3799529 0,-0.2080695 -0.171883,-0.379953 -0.379953,-0.379953 -0.208069,0 -0.379953,0.1718835 -0.379953,0.379953 0,0.2080695 0.171884,0.3799529 0.379953,0.3799529 z m -4.704179,3.5643203 c 0.208069,0 0.379953,-0.171883 0.379953,-0.379953 0,-0.208069 -0.171884,-0.379953 -0.379953,-0.379953 -0.20807,0 -0.379953,0.171884 -0.379953,0.379953 0,0.20807 0.171883,0.379953 0.379953,0.379953 z m 0.316627,-1.3569745 c 0.20807,0 0.379953,-0.1718835 0.379953,-0.379953 0,-0.2080694 -0.171883,-0.3799529 -0.379953,-0.3799529 -0.208069,0 -0.379953,0.1718835 -0.379953,0.3799529 0,0.217116 0.162837,0.379953 0.379953,0.379953 z m 0.560883,-1.1850914 c 0.20807,0 0.379953,-0.1718835 0.379953,-0.3799529 0,-0.2080695 -0.162837,-0.3709065 -0.379953,-0.3709065 -0.208069,0 -0.379953,0.1718835 -0.379953,0.379953 0,0.2080694 0.171884,0.3709064 0.379953,0.3709064 z m 0.90465,-1.0493939 c 0.20807,0 0.379953,-0.1718834 0.379953,-0.3799529 0,-0.2080695 -0.171883,-0.379953 -0.379953,-0.379953 -0.208069,0 -0.379953,0.1718835 -0.379953,0.379953 0,0.2080695 0.171884,0.3799529 0.379953,0.3799529 z m 1.112719,-0.7960919 c 0.20807,0 0.379953,-0.1718834 0.379953,-0.3799529 0,-0.2080695 -0.171883,-0.379953 -0.379953,-0.379953 -0.208069,0 -0.379953,0.1718835 -0.379953,0.379953 0,0.2080695 0.162837,0.3799529 0.379953,0.3799529 z m 1.185092,-0.4704179 c 0.208069,0 0.379953,-0.1718835 0.379953,-0.379953 0,-0.2080695 -0.171884,-0.3799529 -0.379953,-0.3799529 -0.20807,0 -0.379953,0.1718834 -0.379953,0.3799529 0,0.217116 0.171883,0.379953 0.379953,0.379953 z m 1.221277,0.108558 c 0.20807,0 0.379953,-0.1718835 0.379953,-0.379953 0,-0.2080695 -0.171883,-0.3799529 -0.379953,-0.3799529 -0.208069,0 -0.379953,0.1718834 -0.379953,0.3799529 0,0.2080695 0.171884,0.379953 0.379953,0.379953 z M 36.262168,4.695133 c 0.208069,0 0.379952,-0.1718835 0.379952,-0.379953 0,-0.2080695 -0.171883,-0.3799529 -0.379952,-0.3799529 -0.20807,0 -0.379953,0.1718834 -0.379953,0.3799529 -0.009,0.2080695 0.162837,0.379953 0.379953,0.379953 z m 1.157951,-0.7689524 c 0.20807,0 0.379953,-0.1718835 0.379953,-0.379953 0,-0.2080695 -0.171883,-0.3799529 -0.379953,-0.3799529 -0.208069,0 -0.379953,0.1718834 -0.379953,0.3799529 0,0.2080695 0.171884,0.379953 0.379953,0.379953 z m 1.212231,-0.452325 c 0.20807,0 0.379953,-0.1718835 0.379953,-0.3799529 0,-0.2080695 -0.171883,-0.379953 -0.379953,-0.379953 -0.208069,0 -0.379953,0.1718835 -0.379953,0.379953 0,0.2080694 0.171884,0.3799529 0.379953,0.3799529 z m 2.451602,3.7000181 c 0.208069,0 0.379952,-0.1718835 0.379952,-0.3799529 0,-0.2080695 -0.171883,-0.379953 -0.379952,-0.379953 -0.20807,0 -0.379953,0.1718835 -0.379953,0.379953 0,0.2080694 0.171883,0.3799529 0.379953,0.3799529 z m 0,-1.3660213 c 0.208069,0 0.379952,-0.1718835 0.379952,-0.379953 0,-0.2080695 -0.171883,-0.379953 -0.379952,-0.379953 -0.20807,0 -0.379953,0.1718835 -0.379953,0.379953 0,0.2080695 0.171883,0.379953 0.379953,0.379953 z m 0,-1.3750679 c 0.208069,0 0.379952,-0.1718835 0.379952,-0.3799529 0,-0.2080695 -0.171883,-0.379953 -0.379952,-0.379953 -0.20807,0 -0.379953,0.1718835 -0.379953,0.379953 0,0.2171159 0.171883,0.3799529 0.379953,0.3799529 z M 39.880767,3.2657861 c 0.20807,0 0.379953,-0.1718834 0.379953,-0.3799529 0,-0.2080695 -0.171883,-0.379953 -0.379953,-0.379953 -0.208069,0 -0.379953,0.1718835 -0.379953,0.379953 -0.009,0.2080695 0.162837,0.3799529 0.379953,0.3799529 z m 10.448706,9.2455219 c 0.316628,0.171884 0.560883,0.09951 0.868464,-0.009 -0.506604,-0.253302 -0.768952,-0.479465 -0.54279,-1.076534 0.09951,-0.271395 0.235209,-0.470418 0.524697,-0.551836 -0.18093,-2.3159039 -0.832278,-3.4195768 -2.949158,-4.4689707 l -0.153791,0.045233 c 0,0.02714 0.009,0.054279 0.009,0.081419 0,0.3166274 -0.171884,0.4704179 -0.407093,0.6423014 0.379953,0.081418 0.72372,0.253302 0.72372,0.7056269 0,0.379953 -0.253302,0.5880225 -0.588022,0.687534 0.108558,0.2080694 0.126651,0.2985344 0.108558,0.5337434 0.434232,0.2080695 0.524697,0.479464 0.416139,0.913696 -0.162837,0.624209 -0.54279,0.687534 -1.139859,0.533744 -0.09047,0.967975 0.986068,1.338882 1.510765,0.642301 0,-0.05428 0.009,-0.108558 0.01809,-0.171883 0.09951,-0.370907 0.470418,-0.588023 0.841325,-0.497558 0.370906,0.09047 0.597069,0.470418 0.497557,0.841325 -0.02714,0.117604 -0.09046,0.217116 -0.171883,0.307581 -0.02714,0.352813 0.126651,0.669441 0.434231,0.841324 z m -9.84259,-8.4494299 c 0,-0.045233 0.009,-0.099512 0.009,-0.1537905 -2.768229,-0.199023 -4.749412,1.6736023 -5.020807,4.3061335 0.244256,0.099512 0.334721,0.2080695 0.452325,0.4432784 0.479465,-0.027139 0.696581,0.162837 0.805138,0.6061155 0.162837,0.624208 -0.144743,0.859417 -0.732766,1.013208 0.18093,0.407092 0.54279,0.678487 1.013208,0.551836 0.379953,-0.09951 0.624208,-0.425185 0.624208,-0.805138 a 0.73457572,0.73457572 0 0 1 -0.108558,-0.36186 c 0,-0.379953 0.307581,-0.687534 0.696581,-0.687534 0.379953,0 0.69658,0.307581 0.69658,0.687534 0,0.07237 -0.01809,0.144744 -0.03619,0.217116 0.108558,0.36186 0.416139,0.615162 0.814185,0.615162 0.488511,0 0.768953,-0.352814 0.841325,-0.787046 -0.615162,0 -0.967976,-0.162837 -0.967976,-0.805138 0,-0.4523249 0.162837,-0.6965804 0.633255,-0.7870454 0.108558,-0.5699294 0.398046,-0.6061154 0.877511,-0.6784874 0.479464,0.081418 0.768952,0.1176045 0.87751,0.6784874 0.470418,0.090465 0.633255,0.3347205 0.633255,0.7870454 0,0.642301 -0.352814,0.796092 -0.967976,0.805138 0.07237,0.434232 0.352814,0.787046 0.841325,0.787046 0.388999,0 0.69658,-0.253302 0.805138,-0.615162 -0.01809,-0.07237 -0.03619,-0.144744 -0.03619,-0.217116 0,-0.379953 0.307581,-0.687534 0.696581,-0.687534 0.379953,0 0.687534,0.307581 0.687534,0.687534 0,0.135697 -0.03619,0.253302 -0.108558,0.36186 0.009,0.379953 0.244255,0.714673 0.633255,0.805138 0.470418,0.117605 0.832277,-0.15379 1.013207,-0.551836 C 45.561915,10.123032 45.26338,9.878777 45.426217,9.263615 45.543822,8.8203365 45.760937,8.6303601 46.231355,8.6574995 46.34896,8.4132441 46.430378,8.3046861 46.68368,8.2142211 46.412285,5.5726434 44.431102,3.7000181 41.662873,3.9080876 c 0.009,0.054279 0.01809,0.099512 0.01809,0.1537905 0,0.1356974 -0.04523,0.2442554 -0.117604,0.3528134 v 0.6694409 c 0.07237,0.108558 0.117604,0.217116 0.117604,0.3528135 0,0.1356975 -0.04523,0.2442555 -0.117604,0.3528135 l 0.01809,0.6875339 c 0.06333,0.090465 0.09951,0.2080695 0.09951,0.3347205 0,0.3889994 -0.289488,0.5156504 -0.588022,0.6423014 -0.298534,-0.1356975 -0.588022,-0.253302 -0.588022,-0.6423014 0,-0.1356975 0.04523,-0.2442555 0.117604,-0.3528135 V 5.7807129 A 0.61154333,0.61154333 0 0 1 40.504976,5.4278994 c 0,-0.1356975 0.04523,-0.2442555 0.117604,-0.3528135 V 4.405645 A 0.51836439,0.51836439 0 0 1 40.486883,4.0618781 Z m -8.983174,7.3638499 c 0.226163,0.588023 -0.03619,0.823232 -0.54279,1.076534 0.307581,0.108558 0.551837,0.18093 0.868464,0.009 0.316627,-0.171883 0.461371,-0.488511 0.425185,-0.832278 a 0.68753392,0.68753392 0 0 1 0.325674,-1.148905 c 0.370907,-0.09047 0.75086,0.126651 0.841325,0.497557 0.01809,0.05428 0.01809,0.108558 0.01809,0.171884 0.524697,0.69658 1.60123,0.325674 1.510765,-0.642302 -0.597069,0.144744 -0.977022,0.08142 -1.139859,-0.533743 -0.117604,-0.443279 -0.01809,-0.7146735 0.416139,-0.9136965 -0.01809,-0.2442555 0,-0.325674 0.108558,-0.5337434 -0.33472,-0.099512 -0.588022,-0.307581 -0.588022,-0.6784875 0,-0.4523249 0.343767,-0.6242084 0.714673,-0.7056269 -0.226162,-0.1718835 -0.407092,-0.325674 -0.407092,-0.6423014 0,-0.027139 0,-0.054279 -0.153791,-0.108558 -2.153066,1.0584404 -2.759182,2.1168808 -2.940112,4.4599237 0.316628,0.05428 0.443279,0.253302 0.54279,0.524697 z m 18.310114,2.189253 c -2.650624,-1.23937 -5.608829,-1.935951 -8.729871,-1.935951 -3.121043,0 -6.070201,0.687534 -8.711779,1.926905 -0.171884,0.08142 -0.370906,0.009 -0.452325,-0.171884 -0.08142,-0.18093 0.009,-0.307581 0.08142,-0.461371 -0.54279,0.162837 -0.940836,0.162837 -1.411254,-0.199023 -0.868464,0.588022 -1.872626,-0.615162 -1.212231,-1.166999 -0.316628,-0.388999 -0.325674,-0.823231 0.126651,-1.112719 -0.08142,-0.135698 -0.135698,-0.244256 -0.135698,-0.407093 0,-0.452325 0.334721,-0.624208 0.714674,-0.7056265 -0.217116,-0.18093 -0.398046,-0.325674 -0.398046,-0.6423015 0,-0.4613714 0.36186,-0.6513479 0.759906,-0.6965804 -0.108558,-0.162837 -0.189977,-0.2804415 -0.189977,-0.4885109 0,-0.379953 0.307581,-0.687534 0.687534,-0.687534 0.117605,0 0.235209,0.036186 0.343767,0.072372 -0.07237,-0.1537904 -0.135697,-0.2623484 -0.135697,-0.4432784 0,-0.379953 0.307581,-0.6875339 0.687534,-0.6875339 0.18093,0 0.298534,0.063325 0.452324,0.1447439 -0.009,-0.081418 -0.03619,-0.1809299 -0.03619,-0.2623484 0,-0.379953 0.307581,-0.687534 0.687534,-0.687534 0.20807,0 0.334721,0.081419 0.497558,0.1899765 0.08142,-0.3618599 0.280441,-0.6513479 0.69658,-0.6513479 0.307581,0 0.479465,0.162837 0.633255,0.398046 0.162837,-0.18093 0.316628,-0.2985345 0.578976,-0.2985345 0.108558,0 0.20807,0.02714 0.307581,0.054279 -0.05428,-0.1356975 -0.09951,-0.2442555 -0.09951,-0.3889995 0,-0.3799529 0.307581,-0.6875339 0.687534,-0.6875339 0.217116,0 0.343767,0.090465 0.51565,0.199023 -0.01809,-0.081418 -0.04523,-0.1899765 -0.04523,-0.2804415 0,-0.3799529 0.307581,-0.6875339 0.687534,-0.6875339 0.217116,0 0.343767,0.090465 0.515651,0.2080695 0.08142,-0.36186 0.280441,-0.6603945 0.69658,-0.6603945 0.253302,0 0.398046,0.1176045 0.56993,0.2804415 0.135697,-0.2804415 0.325674,-0.4975574 0.669441,-0.4975574 0.09951,0 0.18093,0.02714 0.271395,0.054279 0.235209,-0.217116 0.425185,-0.325674 0.72372,-0.4070925 V 1.1036729 H 40.269767 V 0.6784874 h 0.578976 V 0.16283698 h 0.461371 V 0.6784874 h 0.578976 v 0.4251855 h -0.578976 v 0.7237199 c 0.298534,0.072372 0.488511,0.18093 0.705627,0.4251855 0.09046,-0.036186 0.171883,-0.054279 0.271395,-0.054279 0.352813,0 0.533743,0.2080694 0.669441,0.4975574 0.171883,-0.162837 0.316627,-0.2804415 0.569929,-0.2804415 0.416139,0 0.615162,0.2985345 0.696581,0.6603945 0.162837,-0.126651 0.289488,-0.2080695 0.51565,-0.2080695 0.379953,0 0.687534,0.307581 0.687534,0.6875339 0,0.090465 -0.02714,0.199023 -0.03619,0.2804415 0.171884,-0.108558 0.298535,-0.199023 0.51565,-0.199023 0.379953,0 0.687534,0.307581 0.687534,0.6875339 0,0.144744 -0.05428,0.253302 -0.09951,0.3889995 0.09951,-0.02714 0.199023,-0.054279 0.307581,-0.054279 0.262348,0 0.416139,0.126651 0.578976,0.2985345 0.15379,-0.235209 0.325674,-0.398046 0.633255,-0.398046 0.416139,0 0.624208,0.2985345 0.69658,0.6513479 0.162837,-0.1176045 0.280442,-0.1899765 0.497558,-0.1899765 0.379953,0 0.687534,0.307581 0.687534,0.687534 0,0.081418 -0.01809,0.18093 -0.03619,0.2623484 0.15379,-0.081418 0.271395,-0.1447439 0.452324,-0.1447439 0.379953,0 0.687534,0.3075809 0.687534,0.6875339 0,0.1718835 -0.06333,0.289488 -0.135697,0.4432784 0.117604,-0.054279 0.235209,-0.090465 0.352813,-0.090465 0.379953,0 0.687534,0.307581 0.687534,0.687534 0,0.2080694 -0.08142,0.3256739 -0.189976,0.4885109 0.398046,0.036186 0.759906,0.235209 0.759906,0.6965804 0,0.3166275 -0.171884,0.470418 -0.407093,0.6423015 0.379953,0.081419 0.714674,0.2533015 0.714674,0.7056265 0,0.162837 -0.05428,0.271395 -0.135698,0.407093 0.452325,0.280441 0.452325,0.714673 0.144744,1.121766 0.398046,0.325674 0.189977,0.841324 -0.144744,1.103673 -0.343767,0.262348 -0.687534,0.316627 -1.067487,0.06333 -0.470418,0.36186 -0.868464,0.36186 -1.411253,0.199023 l 0.08142,0.162837 c 0.135697,0.271395 -0.135697,0.578976 -0.434232,0.470418 z m -16.546047,0.687534 -0.560883,-0.20807 -0.04523,-0.09047 c -0.04523,0.01809 -0.08142,0.02714 -0.117605,0.03619 -0.15379,0.009 -0.144744,-0.15379 -0.06333,-0.189976 2.614438,-1.221277 5.518364,-1.899765 8.594174,-1.899765 3.084856,0 5.988782,0.678488 8.594174,1.899765 0.07237,0.03619 0.09047,0.208069 -0.06332,0.189976 -0.02714,0 -0.07237,-0.009 -0.117605,-0.03619 l -0.04523,0.09047 -0.560883,0.20807 0.162837,0.642301 -0.05428,0.108558 c 0.298534,0.135698 0.09046,0.343767 -0.02714,0.289488 -2.397322,-1.121766 -5.066039,-1.745974 -7.897593,-1.745974 -2.831555,0 -5.500272,0.624208 -7.897594,1.745974 -0.06333,0.02714 -0.135698,0 -0.171884,-0.07237 -0.03619,-0.07237 0,-0.126651 0.04523,-0.162837 0.02714,-0.01809 0.06333,-0.03619 0.09047,-0.05428 L 33.0778,14.944816 Z m 3.121043,-0.470418 1.203184,-0.832278 -1.456486,-0.15379 -1.203185,0.832277 z m 11.83282,0.768952 c 0.271395,0 0.488511,-0.217116 0.488511,-0.488511 0,-0.271395 -0.217116,-0.48851 -0.488511,-0.48851 -0.271395,0 -0.488511,0.217115 -0.488511,0.48851 0,0.280442 0.217116,0.488511 0.488511,0.488511 z m -9.580242,-1.257463 c 0.271395,0 0.488511,-0.217116 0.488511,-0.488511 0,-0.271395 -0.217116,-0.488511 -0.488511,-0.488511 -0.271395,0 -0.488511,0.217116 -0.488511,0.488511 0,0.271395 0.217116,0.488511 0.488511,0.488511 z m -4.70418,1.257463 c 0.271395,0 0.488511,-0.217116 0.488511,-0.488511 0,-0.271395 -0.217116,-0.48851 -0.488511,-0.48851 -0.271395,0 -0.488511,0.217115 -0.488511,0.48851 0,0.280442 0.217116,0.488511 0.488511,0.488511 z m 9.580243,-1.257463 c 0.271395,0 0.488511,-0.217116 0.488511,-0.488511 0,-0.271395 -0.217116,-0.488511 -0.488511,-0.488511 -0.271395,0 -0.488511,0.217116 -0.488511,0.488511 0,0.271395 0.217116,0.488511 0.488511,0.488511 z m 2.252578,0.488511 1.456486,-0.153791 -1.203184,-0.832277 -1.456486,0.15379 z m -3.157228,-1.094626 -1.528858,-0.56993 -1.528859,0.56993 1.528859,0.569929 z M 25.243532,32.042699 c 0,8.648454 7.119594,15.722816 15.84042,15.722816 8.711778,0 15.840419,-7.074362 15.840419,-15.722816 0,-8.675592 -7.119594,-15.722815 -15.840419,-15.722815 -8.711779,-0.009 -15.84042,7.047223 -15.84042,15.722815 z m 33.399674,0 c 0,9.598336 -7.879501,17.432604 -17.559254,17.432604 -9.679754,0 -17.559255,-7.843315 -17.559255,-17.432604 0,-9.616428 7.879501,-17.459743 17.559255,-17.459743 9.679753,0 17.559254,7.843315 17.559254,17.459743 z m -19.866112,-7.409082 2.288765,2.32495 2.14402,-2.252578 c -0.75086,-0.199023 -1.465533,-0.343767 -2.252578,-0.370907 -0.732767,-0.03619 -1.47458,0.135698 -2.180207,0.298535 z m 6.034015,-1.637417 3.365298,-3.455762 c 4.351366,2.478741 7.282431,7.128641 7.282431,12.438936 0,3.464809 -1.230323,6.631084 -3.311018,9.109824 l -1.574091,-1.565044 c 1.764067,-2.14402 2.922019,-4.278994 2.922019,-7.680478 0,-3.645739 -1.917858,-7.707617 -4.984621,-9.815451 l -2.017369,2.053555 c 1.040347,0.768953 1.854532,1.546952 2.551113,2.641578 l -1.546952,1.320789 c -0.615162,-1.067487 -1.402207,-1.818346 -2.415415,-2.50588 l -4.025692,4.215668 -4.170436,-4.278994 c -2.162113,1.501719 -3.43767,3.645739 -3.491949,6.314457 -0.07237,3.537181 2.234486,6.006875 5.473132,7.074362 v -7.119595 h 4.939389 v 1.465533 h -3.030577 v 1.899765 h 2.985344 v 1.673602 h -2.985344 v 2.397322 c 2.216392,0.117605 4.568482,-1.157952 6.006875,-2.741089 l 1.483626,1.483626 c -1.890719,2.180206 -4.622761,3.283879 -7.481455,3.301972 v 2.189253 h -1.908811 v -2.424462 c -4.369459,-1.076533 -7.526687,-4.876063 -7.463362,-9.417405 0.03619,-3.111996 1.709788,-5.663109 4.13425,-7.481455 l -2.044509,-2.107834 c -3.175321,2.578252 -4.876063,5.726433 -5.020807,9.815451 -0.108558,3.6186 1.773114,6.522526 2.958206,7.743803 l -1.393161,1.438393 c -2.134974,-2.469694 -3.383391,-5.509317 -3.383391,-8.99222 0,-5.274108 2.931066,-9.924009 7.246246,-12.393703 l 3.41053,3.528134 c 1.203184,-0.461371 2.460648,-0.705626 3.763344,-0.705626 1.293649,0.01809 2.406368,0.253302 3.609553,0.705626 z"
     fill="#fcbf00"
     id="path194"
     style="stroke-width:0.90465" />
  <path
     class="st3"
     d="M 59.167903,32.042699 C 59.167903,41.921476 51.053193,50 41.083952,50 31.11471,50 23,41.921476 23,32.042699 23,22.14583 31.11471,14.067306 41.083952,14.067306 c 9.969241,0 18.083951,8.078524 18.083951,17.975393 z m -0.524697,0 c 0,-9.616428 -7.879501,-17.459743 -17.559254,-17.459743 -9.679754,0 -17.559255,7.843315 -17.559255,17.459743 0,9.598336 7.879501,17.432604 17.559255,17.432604 9.679753,0 17.559254,-7.843315 17.559254,-17.432604 z m -32.874977,0 c 0,8.368012 6.893432,15.207165 15.315723,15.207165 8.42229,0 15.315722,-6.839153 15.315722,-15.207165 0,-8.386104 -6.893432,-15.207164 -15.315722,-15.207164 -8.422291,0 -15.315723,6.82106 -15.315723,15.207164 z m -0.524697,0 c 0,-8.675592 7.119594,-15.722815 15.84042,-15.722815 8.711778,0 15.840419,7.056269 15.840419,15.722815 0,8.648454 -7.119594,15.722816 -15.840419,15.722816 -8.711779,0 -15.84042,-7.074362 -15.84042,-15.722816 z m 17.685905,-3.473855 8.567035,8.775104 c 0.977022,-1.60123 1.465533,-3.238647 1.465533,-5.491225 0,-3.944274 -2.225439,-7.535734 -4.387552,-9.127917 l -1.29365,1.311742 c 1.031301,0.814185 1.764068,1.691695 2.433509,2.804415 l -2.37923,2.044508 C 46.765153,27.781798 46.168084,26.97666 45.14583,26.243894 Z m 10.855799,11.118147 c -1.546951,2.605392 -3.889994,4.658947 -6.685363,5.889271 L 45.715759,44.165008 43.12846,41.532477 c -0.588022,0.126651 -1.203184,0.208069 -1.818346,0.226162 v 2.1983 h -2.958205 v -2.53302 c -4.450878,-1.194138 -7.517641,-5.328388 -7.463362,-9.824498 0.0091,-0.750859 0.108558,-1.474579 0.298535,-2.180206 l -1.465533,-1.47458 c -0.434232,1.212231 -0.678488,2.523974 -0.732767,3.908088 -0.08142,2.786322 1.139859,5.798806 3.175321,7.716664 L 30.02913,41.7315 c -2.514927,-2.804415 -3.889995,-5.961643 -3.889995,-9.761173 0,-5.545503 3.057717,-10.376334 7.870454,-13.054098 l 3.446716,3.573368 c 1.139859,-0.407093 2.433509,-0.615162 3.627647,-0.615162 1.284602,0.01809 2.451601,0.244255 3.482902,0.624208 l 3.510041,-3.6186 c 4.848924,2.668718 7.90664,7.508595 7.90664,13.090284 0,2.849648 -0.759906,5.418853 -2.198299,7.716664 z M 38.342862,36.701646 33.919124,32.223629 c 0.108558,2.514927 1.646463,4.876063 4.423738,5.934504 z M 44.811109,22.9962 44.693505,23.113805 c -1.203185,-0.452325 -2.315904,-0.687534 -3.609553,-0.705627 -1.29365,0 -2.551113,0.244256 -3.763344,0.705627 l -3.41053,-3.528135 c -4.31518,2.478741 -7.246246,7.128642 -7.246246,12.40275 0,3.482903 1.248417,6.522526 3.383391,8.99222 l 1.375068,-1.39316 c -1.185092,-1.221278 -3.066764,-4.125204 -2.958206,-7.743804 0.144744,-4.098064 1.845486,-7.237199 5.020807,-9.815451 l 2.044509,2.107834 c -2.424462,1.818347 -4.089017,4.360413 -4.13425,7.481455 -0.05428,4.541343 3.093903,8.331826 7.463362,9.417405 v 2.424462 h 1.908811 v -2.189253 c 2.86774,-0.01809 5.590736,-1.121765 7.481455,-3.301972 L 46.765153,36.48453 c -1.438393,1.583138 -3.790483,2.849648 -6.006875,2.74109 v -2.397323 h 2.985344 V 35.154695 H 40.758278 V 33.25493 h 3.030577 v -1.465532 h -4.939389 v 7.119594 c -3.238646,-1.067487 -5.545504,-3.537181 -5.473132,-7.074362 0.05428,-2.668717 1.329836,-4.812737 3.491949,-6.314456 l 4.170436,4.278994 4.025692,-4.215669 c 1.013208,0.687534 1.800253,1.438394 2.415415,2.50588 l 1.546952,-1.320788 c -0.696581,-1.094627 -1.510766,-1.872626 -2.551113,-2.641578 l 2.017369,-2.053555 c 3.066763,2.098787 4.984621,6.169712 4.984621,9.815451 0,3.401484 -1.148905,5.536457 -2.922019,7.680478 l 1.574091,1.565044 c 2.080695,-2.478741 3.311018,-5.645015 3.311018,-9.109825 0,-5.310294 -2.931065,-9.960195 -7.282431,-12.438936 z m -6.034015,1.637417 c 0.714674,-0.162837 1.44744,-0.334721 2.180207,-0.298535 0.787045,0.02714 1.501718,0.162837 2.252578,0.370907 l -2.14402,2.252578 z m 1.040348,0.307581 1.23937,1.257463 1.157952,-1.212231 c -0.416139,-0.08142 -0.841325,-0.126651 -1.275556,-0.135697 -0.280442,-0.009 -0.696581,0.02714 -1.121766,0.09046 z m 9.209336,-10.566311 0.108558,0.416139 0.04523,0.15379 0.08142,-0.04523 0.398046,-0.217116 -0.09951,-0.416139 -0.01809,-0.09047 z m 0.787045,-0.759906 c 0.307581,0.108558 0.569929,-0.199023 0.443279,-0.479464 l -0.08142,-0.162837 c 0.54279,0.162837 0.940836,0.162837 1.411254,-0.199023 0.379953,0.253302 0.72372,0.199023 1.067487,-0.06333 0.33472,-0.262348 0.54279,-0.768952 0.144744,-1.103673 0.307581,-0.398046 0.316627,-0.832278 -0.144744,-1.121766 0.08142,-0.135697 0.135697,-0.244255 0.135697,-0.407092 0,-0.452325 -0.343767,-0.6242085 -0.714673,-0.705627 0.226162,-0.1718835 0.407092,-0.325674 0.407092,-0.6423015 0,-0.4613714 -0.36186,-0.6513479 -0.759906,-0.6965804 0.108558,-0.162837 0.189977,-0.2804415 0.189977,-0.4885109 a 0.68753392,0.68753392 0 0 0 -0.687534,-0.687534 c -0.117605,0 -0.235209,0.036186 -0.343767,0.072372 0.07237,-0.1537904 0.135697,-0.2623484 0.135697,-0.4432784 A 0.68753392,0.68753392 0 0 0 50.329473,5.7988059 c -0.189976,0 -0.298534,0.063325 -0.452324,0.1447439 0.009,-0.081418 0.03619,-0.1809299 0.03619,-0.2623484 A 0.68753392,0.68753392 0 0 0 49.225801,4.9936675 c -0.20807,0 -0.334721,0.081418 -0.497558,0.1899764 -0.08142,-0.3528134 -0.280441,-0.6513479 -0.69658,-0.6513479 -0.307581,0 -0.479465,0.162837 -0.633255,0.398046 -0.162837,-0.18093 -0.316628,-0.2985345 -0.578976,-0.2985345 -0.108558,0 -0.20807,0.02714 -0.307581,0.054279 0.05428,-0.1356975 0.09951,-0.2442555 0.09951,-0.3889995 A 0.68753392,0.68753392 0 0 0 45.923828,3.6095531 c -0.217115,0 -0.343766,0.090465 -0.51565,0.199023 0.01809,-0.081419 0.03619,-0.1899765 0.03619,-0.2804415 A 0.68753392,0.68753392 0 0 0 44.75683,2.8406007 c -0.217116,0 -0.343767,0.090465 -0.51565,0.2080695 -0.08142,-0.36186 -0.280442,-0.6603945 -0.696581,-0.6603945 -0.253302,0 -0.398046,0.1176045 -0.569929,0.2804415 -0.135698,-0.2804415 -0.325674,-0.4975574 -0.669441,-0.4975574 -0.09951,0 -0.18093,0.02714 -0.271395,0.054279 C 41.816718,1.9811833 41.635788,1.8816718 41.328207,1.8002533 V 1.0765334 h 0.578976 V 0.6784874 H 41.328207 V 0.16283698 H 40.866836 V 0.6784874 h -0.597069 v 0.4251855 h 0.578976 v 0.7237199 c -0.298535,0.081419 -0.488511,0.1899765 -0.696581,0.4251855 a 0.69205717,0.69205717 0 0 0 -0.271395,-0.054279 c -0.352813,0 -0.533743,0.2080694 -0.669441,0.4975574 -0.171883,-0.162837 -0.316627,-0.2804415 -0.569929,-0.2804415 -0.425186,0 -0.615162,0.2985345 -0.696581,0.6603945 -0.171883,-0.126651 -0.298534,-0.217116 -0.524697,-0.217116 a 0.68753392,0.68753392 0 0 0 -0.687534,0.6875339 c 0,0.090465 0.02714,0.199023 0.04523,0.2804415 -0.171883,-0.108558 -0.298534,-0.199023 -0.51565,-0.199023 A 0.68753392,0.68753392 0 0 0 35.574634,4.31518 c 0,0.144744 0.05428,0.253302 0.09951,0.3889995 -0.09951,-0.02714 -0.199023,-0.054279 -0.307581,-0.054279 -0.262348,0 -0.416139,0.126651 -0.578976,0.2985345 -0.15379,-0.235209 -0.325674,-0.398046 -0.633255,-0.398046 -0.416139,0 -0.615162,0.2985345 -0.69658,0.6513479 -0.162837,-0.108558 -0.289488,-0.1899765 -0.497558,-0.1899765 a 0.68753392,0.68753392 0 0 0 -0.687534,0.687534 c 0,0.081418 0.01809,0.18093 0.03619,0.2623484 -0.15379,-0.081418 -0.271394,-0.1447439 -0.452324,-0.1447439 a 0.68753392,0.68753392 0 0 0 -0.687537,0.6875339 c 0,0.1718835 0.06332,0.289488 0.135697,0.4432784 -0.117604,-0.02714 -0.226162,-0.072372 -0.343767,-0.072372 a 0.68753392,0.68753392 0 0 0 -0.687534,0.687534 c 0,0.2080694 0.08142,0.3256739 0.189977,0.4885109 -0.416139,0.027139 -0.777999,0.2261625 -0.777999,0.6875339 0,0.3166275 0.171883,0.470418 0.398046,0.6423015 -0.379953,0.081419 -0.714674,0.2533015 -0.714674,0.7056265 0,0.162837 0.05428,0.271395 0.135698,0.407093 -0.452325,0.280441 -0.452325,0.714673 -0.144744,1.121766 -0.660395,0.54279 0.343767,1.755021 1.212231,1.166998 0.470418,0.36186 0.868464,0.36186 1.411254,0.199023 -0.07237,0.153791 -0.162837,0.289488 -0.08142,0.461372 0.08142,0.18093 0.280441,0.253301 0.452325,0.171883 2.650624,-1.23937 5.590736,-1.926904 8.711779,-1.926904 3.121042,0 6.09734,0.687534 8.747964,1.926904 z m -16.672698,0.759906 -0.370906,-0.135698 -0.144744,-0.04523 -0.01809,0.09047 -0.108558,0.407092 0.398046,0.217116 0.09047,0.05428 0.03619,-0.162837 z m -0.235209,0.651348 -0.524697,-0.289488 0.126651,-0.524697 c -0.199023,-0.02714 -0.298534,-0.262349 -0.208069,-0.416139 a 0.51565044,0.51565044 0 0 1 -0.54279,-0.289488 c -0.04523,-0.09047 -0.05428,-0.189976 -0.04523,-0.289488 -0.398046,0.08142 -0.814185,-0.009 -1.148906,-0.244255 -0.931791,0.551836 -2.026418,-0.768953 -1.429349,-1.384115 -0.262348,-0.398046 -0.199023,-0.886557 0.144744,-1.148905 a 0.84765696,0.84765696 0 0 1 0.452325,-1.1489055 0.81780351,0.81780351 0 0 1 -0.217116,-0.560883 c 0,-0.3980459 0.280442,-0.7327664 0.651348,-0.8232314 a 0.8775104,0.8775104 0 0 1 -0.07237,-0.3528134 c 0,-0.470418 0.379953,-0.8413244 0.850371,-0.8413244 l 0.08142,0.00905 a 0.84132441,0.84132441 0 0 1 0.823232,-1.0493974 c 0.09047,0 0.18093,0.018093 0.253302,0.036186 0,-0.4613715 0.379953,-0.8413244 0.850371,-0.8413244 0.144744,0 0.271395,0.036186 0.388999,0.099512 a 0.85308486,0.85308486 0 0 1 1.456487,-0.253302 C 34.941379,4.5865755 35.140402,4.505157 35.357518,4.505157 h 0.05428 a 0.84132441,0.84132441 0 0 1 0.832278,-1.0222544 c 0.108558,0 0.217116,0.018093 0.316627,0.063325 a 0.85127556,0.85127556 0 0 1 1.26651,-0.7237199 c 0.117604,-0.325674 0.434232,-0.5518364 0.796092,-0.5518364 0.199023,0 0.379953,0.063325 0.524697,0.1809299 0.15379,-0.2352089 0.416139,-0.3889994 0.72372,-0.3889994 0.08142,0 0.15379,0.00905 0.226162,0.02714 0.135698,-0.144744 0.307581,-0.2623485 0.497558,-0.3347205 l 0.09047,-0.027139 V 1.2665099 H 40.10693 V 0.51565044 h 0.578976 V 0 h 0.787045 v 0.51565044 h 0.578976 V 1.2665099 h -0.578976 v 0.4432784 l 0.09046,0.02714 c 0.189976,0.072372 0.36186,0.1899765 0.497557,0.3347205 0.07237,-0.018093 0.144744,-0.027139 0.226163,-0.027139 0.307581,0 0.569929,0.1537905 0.714673,0.3889994 0.144744,-0.108558 0.325674,-0.1809299 0.524697,-0.1809299 0.370907,0 0.678488,0.2261624 0.796092,0.5518364 0.126651,-0.063325 0.262349,-0.108558 0.416139,-0.108558 0.470418,0 0.841325,0.3709065 0.850371,0.8322779 a 0.84765696,0.84765696 0 0 1 1.166998,0.7779989 c 0,0.063325 -0.009,0.1176045 -0.01809,0.18093 h 0.06333 c 0.217116,0 0.407092,0.081418 0.560883,0.2080695 0.15379,-0.1899765 0.388999,-0.307581 0.660394,-0.307581 0.370907,0 0.678488,0.235209 0.796092,0.560883 a 0.84132441,0.84132441 0 0 1 1.239371,0.7418129 c 0.08142,-0.027139 0.171883,-0.036186 0.262348,-0.036186 0.470418,0 0.850371,0.3799529 0.850371,0.8413244 0,0.072372 -0.009,0.144744 -0.02714,0.2080695 h 0.07237 c 0.470418,0 0.850371,0.3799529 0.850371,0.8413244 0,0.126651 -0.02714,0.2533019 -0.08142,0.3618599 0.370906,0.090465 0.651348,0.4251855 0.651348,0.8232314 0,0.217116 -0.08142,0.416139 -0.217116,0.560883 A 0.84494301,0.84494301 0 0 1 52.87154,10.43966 c 0.343767,0.262348 0.407092,0.750859 0.144744,1.148905 0.379953,0.389 0.05428,1.004162 -0.262349,1.248417 -0.307581,0.244256 -0.741813,0.389 -1.157952,0.135698 -0.325674,0.235209 -0.741813,0.325674 -1.148905,0.244255 0.04523,0.334721 -0.253302,0.633255 -0.588022,0.578976 0.09046,0.15379 -0.009,0.388999 -0.199023,0.416139 l 0.126651,0.524697 -0.524697,0.289488 c 0.07237,0.08142 0.09046,0.208069 0.03619,0.307581 a 0.28948797,0.28948797 0 0 1 -0.389,0.15379 18.384295,18.384295 0 0 0 -7.825221,-1.727881 c -2.804415,0 -5.445993,0.615162 -7.825222,1.727881 -0.153791,0.07237 -0.316628,-0.009 -0.389,-0.15379 a 0.27591822,0.27591822 0 0 1 0.03619,-0.307581 z m 0.36186,-0.72372 -0.162837,0.642301 0.05428,0.108558 c -0.02714,0.01809 -0.06332,0.02714 -0.09047,0.05428 -0.04523,0.04523 -0.08142,0.09047 -0.04523,0.162837 0.03619,0.07237 0.108558,0.09951 0.171883,0.07237 2.397323,-1.121766 5.06604,-1.745974 7.897594,-1.745974 2.831554,0 5.500271,0.624208 7.897594,1.745974 0.126651,0.05428 0.325674,-0.15379 0.02714,-0.289488 l 0.05428,-0.108558 -0.162837,-0.642301 0.560883,-0.20807 0.04523,-0.09047 c 0.04523,0.01809 0.08142,0.02714 0.117604,0.03619 0.153791,0.01809 0.144744,-0.15379 0.06333,-0.189976 -2.614439,-1.221277 -5.518365,-1.899765 -8.594174,-1.899765 -3.07581,0 -5.988783,0.678488 -8.594175,1.899765 -0.07237,0.03619 -0.08142,0.208069 0.06333,0.189976 0.02714,0 0.07237,-0.009 0.117604,-0.03619 l 0.04523,0.09047 z M 46.186177,6.8210602 C 45.516736,5.1474579 43.942645,3.9352271 41.834811,4.0528316 c 0,0.1447439 -0.04523,0.2894879 -0.117605,0.3980459 v 0.5699294 a 0.73548037,0.73548037 0 0 1 0,0.796092 v 0.3618599 c 1.44744,-0.1899765 3.139136,-0.045233 4.468971,0.6423014 z M 41.717206,6.3958748 a 0.73276642,0.73276642 0 0 1 -0.162837,0.9770219 c 0.253302,0.090465 0.452325,0.271395 0.533744,0.6151619 0.51565,0.126651 0.651348,0.506604 0.651348,0.9227429 0,0.4975575 -0.199023,0.9227425 -0.93179,0.9589285 a 0.67848743,0.67848743 0 1 0 1.284603,0.01809 c -0.009,-0.07237 -0.01809,-0.144744 -0.01809,-0.217116 0,-0.4704175 0.379953,-0.8503705 0.859418,-0.8503705 0.470418,0 0.850371,0.379953 0.850371,0.8503705 0,0.144744 -0.03619,0.280442 -0.09951,0.407093 0.01809,0.280441 0.217116,0.533743 0.506604,0.615162 0.289488,0.07237 0.588022,-0.05428 0.741813,-0.298535 C 45.2363,10.177308 45.145835,9.715937 45.272486,9.2364725 45.381044,8.82938 45.607206,8.4946596 46.140949,8.5037061 46.240459,8.3137296 46.367112,8.1961251 46.520902,8.1237531 46.457572,7.7166637 46.367107,7.3367107 46.240456,6.9748507 44.883481,6.2239913 43.101321,6.0882938 41.717206,6.2963633 Z M 40.486883,4.0618781 c 0,0.1356974 0.04523,0.2442554 0.117604,0.3528134 v 0.6694409 c -0.07237,0.108558 -0.117604,0.217116 -0.117604,0.3528135 0,0.1356975 0.04523,0.2442555 0.117604,0.3528135 v 0.6694409 c -0.07237,0.108558 -0.117604,0.217116 -0.117604,0.3528135 0,0.3889994 0.289488,0.5156504 0.588022,0.6423014 0.298534,-0.1356975 0.588022,-0.253302 0.588022,-0.6423014 a 0.60611543,0.60611543 0 0 0 -0.09951,-0.3347205 l -0.01809,-0.6875339 c 0.07237,-0.108558 0.117604,-0.217116 0.117604,-0.3528135 0,-0.1356975 -0.04523,-0.2442555 -0.117604,-0.3528135 V 4.405645 c 0.07237,-0.108558 0.117604,-0.217116 0.117604,-0.3528134 0,-0.054279 -0.009,-0.099512 -0.01809,-0.1537905 2.768229,-0.199023 4.749412,1.6645558 5.020807,4.3061335 -0.244255,0.099512 -0.33472,0.2080695 -0.452325,0.4432784 -0.479464,-0.027139 -0.69658,0.162837 -0.805138,0.6061155 -0.162837,0.6242085 0.135698,0.8594175 0.732766,1.0132075 -0.18093,0.407093 -0.542789,0.678488 -1.013207,0.551837 a 0.83951511,0.83951511 0 0 1 -0.633255,-0.805139 c 0.06332,-0.117604 0.108558,-0.226162 0.108558,-0.36186 A 0.68753392,0.68753392 0 0 0 43.915506,8.9650805 c -0.379953,0 -0.696581,0.307581 -0.696581,0.6875335 0,0.07237 0.01809,0.144744 0.03619,0.217116 -0.108558,0.36186 -0.416139,0.615162 -0.805138,0.615162 -0.488511,0 -0.768953,-0.352813 -0.841325,-0.787045 0.615162,0 0.967976,-0.162837 0.967976,-0.8051385 0,-0.4523249 -0.162837,-0.6965804 -0.633255,-0.7870454 -0.108558,-0.5699294 -0.398046,-0.6061154 -0.87751,-0.6784874 -0.479465,0.081418 -0.768953,0.1176045 -0.877511,0.6784874 -0.470418,0.090465 -0.633255,0.3347205 -0.633255,0.7870454 0,0.6423015 0.352814,0.7960915 0.967976,0.8051385 -0.07237,0.434232 -0.352814,0.787045 -0.841325,0.787045 -0.388999,0 -0.69658,-0.253302 -0.814185,-0.615162 0.01809,-0.07237 0.03619,-0.144744 0.03619,-0.217116 0,-0.3799525 -0.307581,-0.6875335 -0.69658,-0.6875335 -0.379953,0 -0.696581,0.307581 -0.696581,0.6875335 0,0.135698 0.03619,0.253302 0.108558,0.36186 -0.009,0.379953 -0.244255,0.714674 -0.624208,0.805139 -0.470418,0.117604 -0.832278,-0.153791 -1.013208,-0.551837 C 36.578803,10.113986 36.877337,9.86973 36.7145,9.2545685 36.596888,8.81129 36.379772,8.6213136 35.909354,8.648453 35.800796,8.4041976 35.710331,8.2956396 35.457029,8.2051746 c 0.271395,-2.6415777 2.252578,-4.514203 5.020807,-4.3061335 0.01809,0.054279 0.009,0.108558 0.009,0.162837 z m -4.568482,2.9129726 c -0.126651,0.36186 -0.217116,0.741813 -0.262349,1.1398589 0.153791,0.072372 0.280442,0.199023 0.379953,0.379953 0.533744,-0.00905 0.759906,0.3256739 0.868464,0.7327664 0.126651,0.479464 0.03619,0.940836 -0.660394,1.157952 a 0.67396418,0.67396418 0 1 0 1.248416,-0.316628 0.84675231,0.84675231 0 0 1 -0.09951,-0.407092 c 0,-0.470418 0.379953,-0.850371 0.850371,-0.850371 a 0.85670346,0.85670346 0 0 1 0.832278,1.067487 0.67848743,0.67848743 0 0 0 1.284603,-0.01809 c -0.732767,-0.03619 -0.93179,-0.4613715 -0.93179,-0.958929 0,-0.4161389 0.144744,-0.7960919 0.651348,-0.9227429 0.08142,-0.3347204 0.280442,-0.5246969 0.533744,-0.6151619 A 0.73276642,0.73276642 0 0 1 40.450697,6.3868283 V 6.2963633 C 39.066582,6.0973403 37.284422,6.2239913 35.918401,6.9748507 Z M 40.324046,4.0618781 C 38.216211,3.9442736 36.651167,5.1474579 35.981726,6.8301067 37.302515,6.1516193 39.003257,5.9887823 40.44165,6.1968518 V 5.8349919 a 0.73548037,0.73548037 0 0 1 0,-0.796092 V 4.459924 A 0.75990592,0.75990592 0 0 1 40.324046,4.0618781 Z m 8.567034,7.6895239 0.04523,-0.03619 c 0.09046,0.07237 0.171883,0.117605 0.289488,0.153791 l 0.144744,0.02714 c 0.05428,0.298535 0.162837,0.54279 0.370906,0.759906 L 49.650978,12.7827 C 49.153421,12.565584 48.63777,12.357515 48.113073,12.176585 l 0.01809,-0.153791 c 0.280442,-0.02714 0.54279,-0.117604 0.759906,-0.271395 z m 0.04523,0.162837 c -0.144744,0.09951 -0.307581,0.171884 -0.470418,0.217116 0.325674,0.117605 0.651348,0.244256 0.977022,0.379953 -0.09047,-0.144744 -0.162837,-0.307581 -0.199023,-0.479464 l -0.05428,-0.009 c -0.09046,-0.02714 -0.171884,-0.06332 -0.253302,-0.108558 z M 41.00253,9.860684 h 0.162837 c 0.06332,0.443278 0.343767,0.805138 0.732766,0.986068 l -0.03619,0.153791 c -0.253302,-0.009 -0.51565,-0.01809 -0.777998,-0.01809 -0.262349,0 -0.515651,0.009 -0.777999,0.01809 l -0.03619,-0.153791 c 0.388999,-0.18093 0.669441,-0.551836 0.732766,-0.986068 z m 0.08142,0.325674 c -0.09951,0.253302 -0.262349,0.479464 -0.479465,0.642301 0.153791,0 0.316628,-0.009 0.479465,-0.009 0.162836,0 0.316627,0 0.479464,0.009 -0.217116,-0.162837 -0.379953,-0.379953 -0.479464,-0.642301 z m -8.576082,2.596345 -0.09047,-0.126651 c 0.20807,-0.226162 0.316628,-0.461371 0.370907,-0.759906 0.199023,-0.02714 0.271395,-0.04523 0.443278,-0.171883 0.244256,0.18093 0.488511,0.280441 0.796092,0.298534 l 0.01809,0.153791 c -0.524697,0.18093 -1.040347,0.379953 -1.537905,0.606115 z m 0.217116,-0.271395 c 0.316628,-0.135697 0.642302,-0.262348 0.977022,-0.379953 -0.171883,-0.04523 -0.33472,-0.117604 -0.470418,-0.217116 -0.07237,0.04523 -0.162837,0.09046 -0.253302,0.108558 l -0.05428,0.009 c -0.04523,0.171883 -0.108558,0.33472 -0.199023,0.479464 z m 3.82667,-1.203184 v 0.15379 c -0.497558,0.108558 -0.995115,0.235209 -1.483626,0.370907 l -0.07237,-0.135698 c 0.325674,-0.271395 0.497557,-0.69658 0.452325,-1.130812 l 0.15379,-0.03619 c 0.162837,0.407092 0.524697,0.69658 0.949883,0.777999 z m -0.334721,0.07237 c -0.244255,-0.108558 -0.461371,-0.280442 -0.615162,-0.497558 -0.02714,0.271395 -0.135697,0.524697 -0.298534,0.732767 0.307581,-0.09047 0.615162,-0.171884 0.913696,-0.235209 z m 1.384114,-0.108558 -0.05428,-0.144744 c 0.298535,-0.189977 0.479465,-0.443279 0.597069,-0.768953 h 0.09951 c 0.09047,0 0.171883,-0.01809 0.253302,-0.04523 0.199023,0.289488 0.443278,0.488511 0.777999,0.597069 l -0.01809,0.15379 c -0.560883,0.04523 -1.11272,0.117605 -1.65551,0.20807 z m 0.651348,-0.759906 c -0.08142,0.208069 -0.208069,0.388999 -0.370906,0.54279 0.343767,-0.05428 0.69658,-0.09951 1.049394,-0.126651 -0.199023,-0.108558 -0.370907,-0.262349 -0.497558,-0.434232 -0.06332,0.009 -0.117604,0.01809 -0.18093,0.01809 z m 4.658947,0.551836 -0.01809,-0.15379 c 0.334721,-0.108558 0.578976,-0.307581 0.777999,-0.597069 0.09047,0.02714 0.162837,0.04523 0.253302,0.04523 h 0.09951 c 0.117604,0.325674 0.298534,0.578976 0.597069,0.768953 l -0.05428,0.144744 c -0.54279,-0.09047 -1.103673,-0.162837 -1.65551,-0.20807 z m 0.995115,-0.551836 c -0.05428,0 -0.117604,-0.009 -0.171883,-0.01809 -0.135698,0.18093 -0.307581,0.325674 -0.497558,0.434232 0.352814,0.03619 0.696581,0.08142 1.049394,0.126651 -0.15379,-0.144744 -0.271395,-0.316628 -0.36186,-0.506604 z m 3.265786,1.194138 -0.07237,0.135697 C 46.611362,11.697123 46.122851,11.570472 45.616248,11.470961 V 11.31717 c 0.416138,-0.09047 0.777998,-0.370906 0.949882,-0.777999 l 0.15379,0.03619 c -0.04523,0.434232 0.126651,0.859418 0.452325,1.130813 z m -0.316627,-0.09951 c -0.162837,-0.208069 -0.262349,-0.461371 -0.298535,-0.732766 -0.15379,0.226162 -0.370906,0.398046 -0.615162,0.497557 0.307581,0.07237 0.615162,0.153791 0.913697,0.235209 z m 0.235209,-2.777275 a 0.68753392,0.68753392 0 0 0 -0.832278,0.488511 c -0.09047,0.36186 0.126651,0.732766 0.488511,0.823231 0.370906,0.09047 0.741813,-0.126651 0.832278,-0.488511 A 0.67848743,0.67848743 0 0 0 47.090827,8.829383 Z m 0.02714,-0.108558 c 0.425186,0.108558 0.678488,0.5337435 0.56993,0.958929 -0.108558,0.425185 -0.54279,0.678487 -0.967976,0.569929 A 0.78433146,0.78433146 0 0 1 46.149991,9.2907545 c 0.108558,-0.416139 0.54279,-0.6784874 0.967974,-0.5699295 z m 0.588023,-1.2212773 c -0.20807,0 -0.379953,0.1718835 -0.379953,0.3799529 0,0.2080695 0.171883,0.379953 0.379953,0.379953 0.208069,0 0.379953,-0.1718835 0.379953,-0.379953 0,-0.2080694 -0.162837,-0.3799529 -0.379953,-0.3799529 z m 0,-0.108558 c 0.271395,0 0.488511,0.217116 0.488511,0.4885109 0,0.271395 -0.217116,0.488511 -0.488511,0.488511 -0.271395,0 -0.488511,-0.217116 -0.488511,-0.488511 0,-0.2713949 0.226162,-0.4885109 0.488511,-0.4885109 z M 47.389361,6.1425728 c -0.208069,0 -0.379953,0.1718835 -0.379953,0.379953 0,0.2080695 0.171884,0.3799529 0.379953,0.3799529 0.20807,0 0.379953,-0.1718834 0.379953,-0.3799529 a 0.37090646,0.37090646 0 0 0 -0.379953,-0.379953 z m 0,-0.108558 c 0.271395,0 0.488511,0.217116 0.488511,0.488511 0,0.271395 -0.217116,0.4885109 -0.488511,0.4885109 -0.271395,0 -0.488511,-0.2171159 -0.488511,-0.4885109 0,-0.271395 0.226163,-0.488511 0.488511,-0.488511 z m 4.713226,3.6728782 c -0.208069,0 -0.379953,0.171884 -0.379953,0.379953 0,0.20807 0.171884,0.379953 0.379953,0.379953 0.20807,0 0.379953,-0.171883 0.379953,-0.379953 0,-0.208069 -0.171883,-0.379953 -0.379953,-0.379953 z m 0,-0.108558 c 0.271395,0 0.488511,0.217116 0.488511,0.488511 0,0.271395 -0.217116,0.488511 -0.488511,0.488511 -0.271395,0 -0.488511,-0.217116 -0.488511,-0.488511 0,-0.271395 0.217116,-0.488511 0.488511,-0.488511 z M 51.78596,8.3589651 c -0.20807,0 -0.379953,0.1718835 -0.379953,0.3799529 0,0.2080695 0.171883,0.379953 0.379953,0.379953 0.208069,0 0.379953,-0.1718835 0.379953,-0.379953 0,-0.2080694 -0.171884,-0.3799529 -0.379953,-0.3799529 z m 0,-0.108558 c 0.271395,0 0.488511,0.217116 0.488511,0.4885109 0,0.271395 -0.217116,0.488511 -0.488511,0.488511 -0.271395,0 -0.488511,-0.217116 -0.488511,-0.488511 0,-0.2713949 0.217116,-0.4885109 0.488511,-0.4885109 z M 51.21603,7.1738737 c -0.208069,0 -0.379953,0.1718835 -0.379953,0.379953 0,0.2080694 0.171884,0.3709064 0.379953,0.3709064 0.20807,0 0.379953,-0.1718835 0.379953,-0.3799529 0,-0.2080695 -0.171883,-0.3709065 -0.379953,-0.3709065 z m 0,-0.108558 c 0.271395,0 0.488511,0.217116 0.488511,0.488511 0,0.2713949 -0.217116,0.4885109 -0.488511,0.4885109 -0.271395,0 -0.488511,-0.217116 -0.488511,-0.4885109 0,-0.271395 0.217116,-0.488511 0.488511,-0.488511 z M 50.320427,6.1244798 c -0.208069,0 -0.379953,0.1718835 -0.379953,0.379953 0,0.2080695 0.171884,0.3799529 0.379953,0.3799529 0.208069,0 0.379953,-0.1718834 0.379953,-0.3799529 0,-0.2080695 -0.171884,-0.379953 -0.379953,-0.379953 z m 0,-0.108558 c 0.271395,0 0.488511,0.217116 0.488511,0.488511 0,0.271395 -0.217116,0.4885109 -0.488511,0.4885109 -0.271395,0 -0.488511,-0.2171159 -0.488511,-0.4885109 -0.009,-0.271395 0.217116,-0.488511 0.488511,-0.488511 z M 49.207708,5.3193414 c -0.20807,0 -0.379953,0.1718835 -0.379953,0.379953 0,0.2080695 0.171883,0.3799529 0.379953,0.3799529 0.208069,0 0.379953,-0.1718834 0.379953,-0.3799529 0,-0.2080695 -0.171884,-0.379953 -0.379953,-0.379953 z m 0,-0.108558 c 0.271395,0 0.488511,0.217116 0.488511,0.488511 0,0.2713949 -0.217116,0.4885109 -0.488511,0.4885109 -0.271395,0 -0.488511,-0.217116 -0.488511,-0.4885109 0,-0.271395 0.217116,-0.488511 0.488511,-0.488511 z M 48.01357,4.85797 c -0.20807,0 -0.379953,0.1718834 -0.379953,0.3799529 0,0.2080695 0.171883,0.379953 0.379953,0.379953 0.208069,0 0.379953,-0.1718835 0.379953,-0.379953 0,-0.2080695 -0.171884,-0.3799529 -0.379953,-0.3799529 z m 0,-0.108558 c 0.271395,0 0.488511,0.217116 0.488511,0.4885109 0,0.271395 -0.217116,0.488511 -0.488511,0.488511 -0.271395,0 -0.488511,-0.217116 -0.488511,-0.488511 0,-0.2713949 0.217116,-0.4885109 0.488511,-0.4885109 z m -1.212231,0.2080695 c -0.20807,0 -0.379953,0.1718834 -0.379953,0.3799529 0,0.2080695 0.171883,0.379953 0.379953,0.379953 0.208069,0 0.379953,-0.1718835 0.379953,-0.379953 A 0.38899946,0.38899946 0 0 0 46.801339,4.9574815 Z m 0,-0.108558 c 0.271395,0 0.488511,0.2171159 0.488511,0.4885109 0,0.271395 -0.217116,0.488511 -0.488511,0.488511 -0.271395,0 -0.488511,-0.217116 -0.488511,-0.488511 -0.009,-0.271395 0.217116,-0.4885109 0.488511,-0.4885109 z M 45.905735,3.9352271 c -0.208069,0 -0.379952,0.1718834 -0.379952,0.3799529 0,0.2080695 0.171883,0.379953 0.379952,0.379953 0.20807,0 0.379953,-0.1718835 0.379953,-0.379953 0,-0.2080695 -0.171883,-0.3799529 -0.379953,-0.3799529 z m 0,-0.108558 c 0.271395,0 0.488511,0.217116 0.488511,0.4885109 0,0.271395 -0.217116,0.488511 -0.488511,0.488511 -0.271394,0 -0.48851,-0.217116 -0.48851,-0.488511 0,-0.2623484 0.217116,-0.4885109 0.48851,-0.4885109 z M 44.738737,3.1662747 c -0.208069,0 -0.379953,0.1718834 -0.379953,0.3799529 0,0.2080695 0.171884,0.379953 0.379953,0.379953 0.20807,0 0.379953,-0.1718835 0.379953,-0.379953 0,-0.2080695 -0.171883,-0.3799529 -0.379953,-0.3799529 z m 0,-0.108558 c 0.271395,0 0.488511,0.2171159 0.488511,0.4885109 0,0.271395 -0.217116,0.488511 -0.488511,0.488511 -0.271395,0 -0.488511,-0.217116 -0.488511,-0.488511 0,-0.271395 0.217116,-0.4885109 0.488511,-0.4885109 z M 43.526506,2.7229962 c -0.208069,0 -0.379953,0.1718835 -0.379953,0.379953 0,0.2080694 0.171884,0.3799529 0.379953,0.3799529 0.20807,0 0.379953,-0.1718835 0.379953,-0.3799529 0,-0.2080695 -0.171883,-0.379953 -0.379953,-0.379953 z m 0,-0.108558 c 0.271395,0 0.488511,0.217116 0.488511,0.488511 0,0.2713949 -0.217116,0.4794644 -0.488511,0.4794644 -0.271395,0 -0.488511,-0.217116 -0.488511,-0.4885109 0,-0.271395 0.217116,-0.4794645 0.488511,-0.4794645 z m -1.23937,-0.108558 c -0.20807,0 -0.379953,0.1718835 -0.379953,0.379953 0,0.2080695 0.171883,0.3799529 0.379953,0.3799529 0.208069,0 0.379953,-0.1718834 0.379953,-0.3799529 0,-0.2080695 -0.171884,-0.379953 -0.379953,-0.379953 z m 0,-0.108558 c 0.271395,0 0.488511,0.217116 0.488511,0.488511 0,0.271395 -0.217116,0.4885109 -0.488511,0.4885109 -0.271395,0 -0.488511,-0.2171159 -0.488511,-0.4885109 0,-0.271395 0.217116,-0.488511 0.488511,-0.488511 z M 30.535734,12.438936 c 0.33472,-0.18093 0.452325,-0.597069 0.271395,-0.922743 -0.18093,-0.325674 -0.597069,-0.452325 -0.93179,-0.271395 -0.325674,0.18093 -0.452325,0.588023 -0.271395,0.922743 0.189977,0.334721 0.606116,0.452325 0.93179,0.271395 z m 0.05428,0.09951 a 0.79609191,0.79609191 0 0 1 -1.076534,-0.307579 0.78161751,0.78161751 0 0 1 0.316628,-1.067487 0.79609191,0.79609191 0 0 1 1.076533,0.307581 c 0.20807,0.379953 0.07237,0.859417 -0.316627,1.067487 z m 4.821784,-2.397323 c 0.36186,-0.09047 0.588022,-0.461371 0.488511,-0.823231 A 0.68753392,0.68753392 0 0 0 35.06803,8.829383 c -0.36186,0.090465 -0.588023,0.4613715 -0.488511,0.823231 0.09951,0.370907 0.470418,0.588023 0.832278,0.488511 z m 0.02714,0.108558 A 0.79428261,0.79428261 0 0 1 34.470962,9.679752 c -0.108558,-0.4251855 0.144744,-0.850371 0.569929,-0.958929 0.425186,-0.1085579 0.859418,0.144744 0.967976,0.5699295 0.108558,0.4251855 -0.144744,0.8503705 -0.56993,0.9589285 z m 5.645016,-0.8141845 c 0.379952,0 0.687533,-0.307581 0.687533,-0.6784875 0,-0.3709064 -0.307581,-0.6784874 -0.687533,-0.6784874 -0.379953,0 -0.687534,0.307581 -0.687534,0.6784874 0,0.3709065 0.307581,0.6784875 0.687534,0.6784875 z m 0,0.1085575 A 0.79609191,0.79609191 0 0 1 40.28786,8.757011 c 0,-0.4342319 0.352813,-0.7870454 0.796092,-0.7870454 0.434231,0 0.796091,0.3528135 0.796091,0.7870454 -0.009,0.434232 -0.36186,0.787045 -0.796091,0.787045 z M 34.452868,8.2504071 c 0.208069,0 0.379953,-0.1718835 0.379953,-0.379953 0,-0.2080694 -0.171884,-0.3799529 -0.379953,-0.3799529 -0.20807,0 -0.379953,0.1718835 -0.379953,0.3799529 0,0.217116 0.171883,0.379953 0.379953,0.379953 z m 0,0.108558 c -0.271395,0 -0.488511,-0.217116 -0.488511,-0.488511 0,-0.2713949 0.217116,-0.4885109 0.488511,-0.4885109 0.271395,0 0.488511,0.217116 0.488511,0.4885109 0,0.271395 -0.217116,0.488511 -0.488511,0.488511 z m 0.316627,-1.4564864 c 0.20807,0 0.379953,-0.1718834 0.379953,-0.3799529 0,-0.2080695 -0.171883,-0.379953 -0.379953,-0.379953 -0.208069,0 -0.379953,0.1718835 -0.379953,0.379953 0,0.2080695 0.171884,0.3799529 0.379953,0.3799529 z m 0,0.108558 c -0.271395,0 -0.488511,-0.2171159 -0.488511,-0.4885109 0,-0.271395 0.217116,-0.488511 0.488511,-0.488511 0.271395,0 0.488511,0.217116 0.488511,0.488511 0,0.271395 -0.217116,0.4885109 -0.488511,0.4885109 z m -4.704179,3.4557623 c 0.208069,0 0.379953,-0.171883 0.379953,-0.379953 0,-0.208069 -0.171884,-0.379953 -0.379953,-0.379953 -0.20807,0 -0.379953,0.171884 -0.379953,0.379953 0,0.20807 0.171883,0.379953 0.379953,0.379953 z m 0,0.09951 c -0.271395,0 -0.488511,-0.217116 -0.488511,-0.488511 0,-0.271395 0.217116,-0.488511 0.488511,-0.488511 0.271395,0 0.488511,0.217116 0.488511,0.488511 0,0.280441 -0.217116,0.488511 -0.488511,0.488511 z m 0.316627,-1.4564845 c 0.20807,0 0.379953,-0.1718835 0.379953,-0.379953 0,-0.2080694 -0.171883,-0.3799529 -0.379953,-0.3799529 -0.208069,0 -0.379953,0.1718835 -0.379953,0.3799529 0,0.217116 0.162837,0.379953 0.379953,0.379953 z m 0,0.108558 c -0.271395,0 -0.488511,-0.217116 -0.488511,-0.488511 0,-0.2713949 0.217116,-0.4885109 0.488511,-0.4885109 0.271395,0 0.488511,0.217116 0.488511,0.4885109 0,0.271395 -0.226162,0.488511 -0.488511,0.488511 z m 0.560883,-1.2936494 c 0.20807,0 0.379953,-0.1718835 0.379953,-0.3799529 0,-0.2080695 -0.162837,-0.3709065 -0.379953,-0.3709065 -0.208069,0 -0.379953,0.1718835 -0.379953,0.379953 0,0.2080694 0.171884,0.3709064 0.379953,0.3709064 z m 0,0.108558 c -0.271395,0 -0.488511,-0.217116 -0.488511,-0.4885109 0,-0.271395 0.217116,-0.488511 0.488511,-0.488511 0.271395,0 0.488511,0.217116 0.488511,0.488511 0,0.2713949 -0.217116,0.4885109 -0.488511,0.4885109 z m 0.90465,-1.1579519 c 0.20807,0 0.379953,-0.1718834 0.379953,-0.3799529 0,-0.2080695 -0.171883,-0.379953 -0.379953,-0.379953 -0.208069,0 -0.379953,0.1718835 -0.379953,0.379953 0,0.2080695 0.171884,0.3799529 0.379953,0.3799529 z m 0,0.108558 c -0.271395,0 -0.488511,-0.2171159 -0.488511,-0.4885109 0,-0.271395 0.217116,-0.488511 0.488511,-0.488511 0.271395,0 0.488511,0.217116 0.488511,0.488511 0,0.271395 -0.217116,0.4885109 -0.488511,0.4885109 z m 1.112719,-0.9046499 c 0.20807,0 0.379953,-0.1718834 0.379953,-0.3799529 0,-0.2080695 -0.171883,-0.379953 -0.379953,-0.379953 -0.208069,0 -0.379953,0.1718835 -0.379953,0.379953 0,0.2080695 0.162837,0.3799529 0.379953,0.3799529 z m 0,0.108558 c -0.271395,0 -0.488511,-0.217116 -0.488511,-0.4885109 0,-0.271395 0.217116,-0.488511 0.488511,-0.488511 0.271395,0 0.488511,0.217116 0.488511,0.488511 0,0.2713949 -0.217116,0.4885109 -0.488511,0.4885109 z m 1.185092,-0.5789759 c 0.208069,0 0.379953,-0.1718835 0.379953,-0.379953 0,-0.2080695 -0.171884,-0.3799529 -0.379953,-0.3799529 -0.20807,0 -0.379953,0.1718834 -0.379953,0.3799529 0,0.217116 0.171883,0.379953 0.379953,0.379953 z m 0,0.108558 c -0.271395,0 -0.488511,-0.217116 -0.488511,-0.488511 0,-0.2713949 0.217116,-0.4885109 0.488511,-0.4885109 0.271395,0 0.488511,0.217116 0.488511,0.4885109 0.009,0.271395 -0.217116,0.488511 -0.488511,0.488511 z m 1.221277,0 c 0.20807,0 0.379953,-0.1718835 0.379953,-0.379953 0,-0.2080695 -0.171883,-0.3799529 -0.379953,-0.3799529 -0.208069,0 -0.379953,0.1718834 -0.379953,0.3799529 0,0.2080695 0.171884,0.379953 0.379953,0.379953 z m 0,0.108558 c -0.271395,0 -0.488511,-0.217116 -0.488511,-0.488511 0,-0.271395 0.217116,-0.4885109 0.488511,-0.4885109 0.271395,0 0.488511,0.2171159 0.488511,0.4885109 0,0.271395 -0.217116,0.488511 -0.488511,0.488511 z M 36.262168,4.695133 c 0.208069,0 0.379952,-0.1718835 0.379952,-0.379953 0,-0.2080695 -0.171883,-0.3799529 -0.379952,-0.3799529 -0.20807,0 -0.379953,0.1718834 -0.379953,0.3799529 -0.009,0.2080695 0.162837,0.379953 0.379953,0.379953 z m 0,0.108558 c -0.271395,0 -0.488511,-0.217116 -0.488511,-0.488511 0,-0.2713949 0.217116,-0.4885109 0.488511,-0.4885109 0.271395,0 0.48851,0.217116 0.48851,0.4885109 0,0.271395 -0.226162,0.488511 -0.48851,0.488511 z m 1.157951,-0.8775104 c 0.20807,0 0.379953,-0.1718835 0.379953,-0.379953 0,-0.2080695 -0.171883,-0.3799529 -0.379953,-0.3799529 -0.208069,0 -0.379953,0.1718834 -0.379953,0.3799529 0,0.2080695 0.171884,0.379953 0.379953,0.379953 z m 0,0.108558 c -0.271395,0 -0.488511,-0.217116 -0.488511,-0.488511 0,-0.271395 0.217116,-0.4885109 0.488511,-0.4885109 0.271395,0 0.488511,0.2171159 0.488511,0.4885109 0,0.271395 -0.217116,0.488511 -0.488511,0.488511 z m 1.212231,-0.560883 c 0.20807,0 0.379953,-0.1718835 0.379953,-0.3799529 0,-0.2080695 -0.171883,-0.379953 -0.379953,-0.379953 -0.208069,0 -0.379953,0.1718835 -0.379953,0.379953 0,0.2080694 0.171884,0.3799529 0.379953,0.3799529 z m 0,0.108558 c -0.271395,0 -0.488511,-0.217116 -0.488511,-0.4885109 0,-0.271395 0.217116,-0.488511 0.488511,-0.488511 0.271395,0 0.488511,0.217116 0.488511,0.488511 0,0.2713949 -0.217116,0.4885109 -0.488511,0.4885109 z m 2.451602,3.5914601 c 0.208069,0 0.379952,-0.1718835 0.379952,-0.3799529 0,-0.2080695 -0.171883,-0.379953 -0.379952,-0.379953 -0.20807,0 -0.379953,0.1718835 -0.379953,0.379953 0,0.2080694 0.171883,0.3799529 0.379953,0.3799529 z m 0,0.108558 c -0.271395,0 -0.488511,-0.217116 -0.488511,-0.4885109 0,-0.271395 0.217116,-0.488511 0.488511,-0.488511 0.271394,0 0.48851,0.217116 0.48851,0.488511 0,0.2713949 -0.217116,0.4885109 -0.48851,0.4885109 z m 0,-1.4745793 c 0.208069,0 0.379952,-0.1718835 0.379952,-0.379953 0,-0.2080695 -0.171883,-0.379953 -0.379952,-0.379953 -0.20807,0 -0.379953,0.1718835 -0.379953,0.379953 0,0.2080695 0.171883,0.379953 0.379953,0.379953 z m 0,0.1085579 c -0.271395,0 -0.488511,-0.2171159 -0.488511,-0.4885109 0,-0.271395 0.217116,-0.4885109 0.488511,-0.4885109 0.271394,0 0.48851,0.2171159 0.48851,0.4885109 0,0.271395 -0.217116,0.4885109 -0.48851,0.4885109 z m 0,-1.4836258 c 0.208069,0 0.379952,-0.1718835 0.379952,-0.3799529 0,-0.2080695 -0.171883,-0.379953 -0.379952,-0.379953 -0.20807,0 -0.379953,0.1718835 -0.379953,0.379953 0,0.2171159 0.171883,0.3799529 0.379953,0.3799529 z m 0,0.108558 c -0.271395,0 -0.488511,-0.217116 -0.488511,-0.4885109 0,-0.271395 0.217116,-0.488511 0.488511,-0.488511 0.271394,0 0.48851,0.217116 0.48851,0.488511 0,0.2713949 -0.217116,0.4885109 -0.48851,0.4885109 z M 39.880767,3.2657861 c 0.20807,0 0.379953,-0.1718834 0.379953,-0.3799529 0,-0.2080695 -0.171883,-0.379953 -0.379953,-0.379953 -0.208069,0 -0.379953,0.1718835 -0.379953,0.379953 -0.009,0.2080695 0.162837,0.3799529 0.379953,0.3799529 z m 0,0.108558 c -0.271395,0 -0.488511,-0.2171159 -0.488511,-0.4885109 0,-0.271395 0.217116,-0.488511 0.488511,-0.488511 0.271395,0 0.488511,0.217116 0.488511,0.488511 a 0.49755745,0.49755745 0 0 1 -0.488511,0.4885109 z m 12.40275,7.8795009 a 0.67577348,0.67577348 0 0 0 -0.922743,0.271395 c -0.18093,0.325674 -0.06333,0.741813 0.271395,0.922743 0.334721,0.18093 0.75086,0.06333 0.93179,-0.262349 0.171883,-0.343767 0.04523,-0.750859 -0.280442,-0.931789 z m 0.05428,-0.09951 c 0.389,0.20807 0.524697,0.687534 0.316628,1.067487 a 0.79609191,0.79609191 0 0 1 -1.076534,0.307581 0.77799891,0.77799891 0 0 1 -0.307581,-1.067487 c 0.199023,-0.379953 0.678488,-0.51565 1.067487,-0.307581 z m -20.834088,0.271393 c -0.09951,-0.271395 -0.235209,-0.470418 -0.524697,-0.551836 0.18093,-2.3339969 0.787046,-3.4014838 2.912973,-4.4689707 0.18093,0.063326 0.18093,0.090465 0.18093,0.126651 0,0.3166274 0.18093,0.4704179 0.407092,0.6423014 -0.379953,0.081418 -0.714673,0.253302 -0.714673,0.7056269 0,0.379953 0.253302,0.5880225 0.588022,0.6784875 -0.108558,0.2080694 -0.126651,0.2985344 -0.108558,0.5337434 -0.434232,0.2080695 -0.524697,0.4794645 -0.416139,0.9136965 0.162837,0.624208 0.54279,0.687534 1.139859,0.533743 0.09047,0.967976 -0.986068,1.338882 -1.510765,0.642302 0,-0.05428 -0.009,-0.108558 -0.01809,-0.171884 a 0.69567577,0.69567577 0 0 0 -0.841325,-0.497557 c -0.370906,0.09047 -0.597068,0.470418 -0.497557,0.841324 0.02714,0.117605 0.09047,0.217116 0.171883,0.307581 0.03619,0.343767 -0.117604,0.669441 -0.425185,0.832278 -0.316627,0.171884 -0.560883,0.09951 -0.868464,-0.009 0.497558,-0.235209 0.75086,-0.470418 0.524697,-1.058441 z m 0.03619,-2.523973 c -0.208069,0.524697 -0.316627,1.121766 -0.379953,1.854532 0.253302,0.108558 0.407093,0.36186 0.506604,0.615162 0.144744,0.389 0.153791,0.787046 -0.271395,1.08558 0.126651,0.009 0.253302,-0.01809 0.370907,-0.08142 0.235209,-0.126651 0.361859,-0.379953 0.352813,-0.624209 a 0.84132441,0.84132441 0 0 1 -0.171883,-0.33472 0.85037091,0.85037091 0 0 1 0.615161,-1.031301 0.84946626,0.84946626 0 0 1 1.040348,0.615162 l 0.02714,0.144744 c 0.389,0.470418 1.166999,0.226162 1.203185,-0.389 -0.714674,0.144744 -1.022255,-0.217116 -1.139859,-0.69658 -0.108558,-0.407093 -0.06333,-0.8051385 0.407092,-1.0584405 0,-0.126651 0.01809,-0.2442555 0.05428,-0.343767 A 0.85489416,0.85489416 0 0 1 33.647729,8.0423376 C 33.240637,8.1328026 32.779265,8.2504071 32.399312,8.3951511 32.01936,8.5398951 31.738918,8.720825 31.539895,8.901755 Z m 2.379229,-2.3249502 c -1.185091,0.6151619 -1.881671,1.2393703 -2.288764,2.1168807 0.217116,-0.1628369 0.452325,-0.2894879 0.705627,-0.3889994 0.379953,-0.144744 0.859417,-0.271395 1.26651,-0.36186 v -0.054279 c 0,-0.3528134 0.217116,-0.6603944 0.533743,-0.7870454 a 0.85489416,0.85489416 0 0 1 -0.21712,-0.5246969 z m 16.410349,5.9345032 c -0.316627,-0.171883 -0.461371,-0.488511 -0.425185,-0.832278 0.08142,-0.09047 0.135698,-0.189976 0.171884,-0.307581 a 0.68753392,0.68753392 0 0 0 -0.497558,-0.841324 c -0.370906,-0.09047 -0.750859,0.126651 -0.841324,0.497557 -0.01809,0.05428 -0.01809,0.108558 -0.01809,0.171884 -0.524697,0.69658 -1.601231,0.325674 -1.510766,-0.642302 0.597069,0.144744 0.977022,0.08142 1.139859,-0.533743 0.117605,-0.443279 0.01809,-0.7146735 -0.416139,-0.9136965 0.01809,-0.2442555 0,-0.325674 -0.108558,-0.5337434 0.325674,-0.099512 0.588023,-0.307581 0.588023,-0.687534 0,-0.4523249 -0.343767,-0.6242084 -0.72372,-0.7056269 0.226162,-0.1718835 0.407092,-0.325674 0.407092,-0.6423014 0,-0.027139 0,-0.054279 -0.009,-0.081418 l 0.15379,-0.045233 c 2.116881,1.0493939 2.768229,2.1530668 2.949159,4.4689702 -0.289488,0.09047 -0.416139,0.289488 -0.524697,0.551837 -0.226163,0.588022 0.03619,0.823231 0.54279,1.076533 -0.316628,0.09951 -0.560883,0.171884 -0.877511,0 z m -1.78216,-4.4689704 c -0.05428,0.2804415 -0.253302,0.506604 -0.506604,0.6151619 0.03619,0.099511 0.05428,0.217116 0.05428,0.343767 0.470418,0.2442555 0.506604,0.6513475 0.407093,1.0584405 -0.126651,0.479464 -0.425186,0.841324 -1.139859,0.69658 0.03619,0.615162 0.814185,0.859418 1.203184,0.389 0,-0.04523 0.009,-0.09951 0.02714,-0.144744 0.117604,-0.452325 0.588022,-0.732767 1.040347,-0.615162 a 0.84403836,0.84403836 0 0 1 0.443279,1.366021 c -0.02714,0.407093 0.316627,0.732767 0.714673,0.705627 -0.425186,-0.298534 -0.425186,-0.69658 -0.271395,-1.08558 0.09951,-0.253302 0.253302,-0.506604 0.497557,-0.615162 C 50.953682,10.023521 50.845124,9.4174055 50.637054,8.8927085 50.438031,8.720825 50.15759,8.5308486 49.804777,8.3951511 49.415777,8.2504071 48.954406,8.1328026 48.547313,8.0423376 Z M 48.248779,6.5496653 c -0.009,0.2080695 -0.09047,0.3980459 -0.217116,0.5427899 0.316627,0.126651 0.533743,0.434232 0.533743,0.7870454 v 0.054279 c 0.425186,0.090465 0.868464,0.2080695 1.26651,0.36186 0.280442,0.108558 0.51565,0.253302 0.705627,0.3889994 C 50.130451,7.8161751 49.43387,7.1829202 48.248779,6.5496653 Z m -2.478741,7.2824317 -1.203184,-0.832278 1.456486,-0.15379 1.203184,0.832277 z M 43.51746,13.343586 c -0.271395,0 -0.488511,-0.217116 -0.488511,-0.488511 0,-0.271395 0.217116,-0.488511 0.488511,-0.488511 0.271395,0 0.488511,0.217116 0.488511,0.488511 0.009,0.271395 -0.217116,0.488511 -0.488511,0.488511 z m 0,-0.108558 c 0.208069,0 0.379953,-0.171883 0.379953,-0.379953 0,-0.208069 -0.171884,-0.379953 -0.379953,-0.379953 -0.20807,0 -0.379953,0.171884 -0.379953,0.379953 0,0.20807 0.171883,0.379953 0.379953,0.379953 z m -9.580243,1.26651 c 0.20807,0 0.379953,-0.171884 0.379953,-0.379953 0,-0.20807 -0.171883,-0.379953 -0.379953,-0.379953 -0.208069,0 -0.379953,0.171883 -0.379953,0.379953 0,0.208069 0.171884,0.379953 0.379953,0.379953 z m 0,0.09951 c -0.271395,0 -0.488511,-0.217116 -0.488511,-0.488511 0,-0.271395 0.217116,-0.48851 0.488511,-0.48851 0.271395,0 0.488511,0.217115 0.488511,0.48851 0,0.280442 -0.217116,0.488511 -0.488511,0.488511 z m 4.70418,-1.366021 c 0.208069,0 0.379953,-0.171883 0.379953,-0.379953 0,-0.208069 -0.171884,-0.379953 -0.379953,-0.379953 -0.20807,0 -0.379953,0.171884 -0.379953,0.379953 0,0.20807 0.171883,0.379953 0.379953,0.379953 z m 0,0.108558 c -0.271395,0 -0.488511,-0.217116 -0.488511,-0.488511 0,-0.271395 0.217116,-0.488511 0.488511,-0.488511 0.271395,0 0.488511,0.217116 0.488511,0.488511 0,0.271395 -0.217116,0.488511 -0.488511,0.488511 z m 9.580242,1.157952 c 0.20807,0 0.379953,-0.171884 0.379953,-0.379953 0,-0.20807 -0.171883,-0.379953 -0.379953,-0.379953 -0.208069,0 -0.379953,0.171883 -0.379953,0.379953 0,0.208069 0.171884,0.379953 0.379953,0.379953 z m 0,0.09951 c -0.271395,0 -0.488511,-0.217116 -0.488511,-0.488511 0,-0.271395 0.217116,-0.48851 0.488511,-0.48851 0.271395,0 0.488511,0.217115 0.488511,0.48851 0,0.280442 -0.217116,0.488511 -0.488511,0.488511 z m -11.83282,-0.768952 -1.456487,-0.153791 1.203185,-0.832277 1.456486,0.15379 z m 5.907363,-1.094626 -1.221277,-0.452325 -1.221277,0.452325 1.221277,0.452325 z m 0.316628,0 -1.528858,0.569929 -1.528859,-0.569929 1.528859,-0.56993 z m 134.18672,11.145286 v 16.102769 h -3.03962 v -1.501719 c -0.7961,1.347928 -2.17116,1.818346 -3.45577,1.818346 -3.49195,0 -4.94843,-3.139135 -4.94843,-6.413968 0,-4.125203 2.29781,-6.142573 4.87606,-6.142573 1.99928,0 2.93107,1.103673 3.41053,1.863579 l 0.0452,-5.717387 h 3.112 z m -8.25945,10.231591 c 0,1.411254 0.55183,3.609553 2.55111,3.609553 1.97214,0 2.75013,-1.655509 2.75013,-3.428623 0,-1.899765 -0.52469,-3.835716 -2.65967,-3.835716 -1.98118,0 -2.64157,1.773114 -2.64157,3.654786 z m -98.163565,-8.36801 v 5.464086 h 4.975575 c 1.574091,0 3.2296,-0.407093 3.2296,-2.777276 0,-2.487787 -1.791207,-2.68681 -2.849647,-2.68681 z m 0,7.327664 v 6.911526 H 68.223449 V 23.882757 h 7.345757 c 2.605391,0 5.21983,0.913697 5.21983,4.324227 0,2.370183 -1.194138,3.247693 -2.1983,3.853808 0.90465,0.379953 1.818347,0.787046 1.899765,3.030578 l 0.135698,2.922019 c 0.01809,0.895603 0.135697,1.230324 0.796092,1.610277 v 0.36186 h -2.632532 c -0.307581,-0.986069 -0.379953,-3.43767 -0.379953,-4.043785 0,-1.329836 -0.262348,-2.876787 -2.8406,-2.876787 h -5.192691 z m 14.184911,0.135698 h 6.441107 c -0.108558,-1.827393 -0.859417,-3.519088 -3.2296,-3.519088 -1.800253,0 -3.211507,1.691695 -3.211507,3.519088 z m 6.350642,3.111996 h 1.935951 c -0.06333,0.560882 -0.597069,2.216392 -2.053555,3.20246 -0.533744,0.36186 -1.284603,0.814185 -3.139136,0.814185 -3.256739,0 -5.183644,-2.487787 -5.183644,-5.871178 0,-3.645739 1.727882,-6.531572 5.554551,-6.531572 3.347204,0 4.975574,2.68681 4.975574,6.8482 h -8.44943 c 0,2.442554 1.130813,3.853808 3.365298,3.853808 1.845486,-0.009 2.922019,-1.44744 2.994391,-2.315903 z m 10.810562,-0.389 v -1.935951 c -0.30758,0.244256 -0.79609,0.425186 -3.202456,0.741813 -0.949883,0.135698 -2.478741,0.425186 -2.478741,1.908811 0,1.275557 0.642301,2.044509 2.098788,2.044509 1.8093,0 3.582409,-1.185091 3.582409,-2.759182 z m -5.346477,-4.107111 h -1.78216 c 0.09046,-2.804414 1.917858,-3.899041 4.776552,-3.899041 0.931785,0 4.288035,0.271395 4.288035,3.265787 v 6.757734 c 0,0.497558 0.24426,0.696581 0.64231,0.696581 0.18093,0 0.41614,-0.04523 0.6423,-0.09047 v 1.429347 c -0.33472,0.09047 -0.62421,0.226162 -1.05844,0.226162 -1.71884,0 -1.99023,-0.895603 -2.05356,-1.791207 -0.75086,0.832278 -1.926902,1.908812 -4.17948,1.908812 -2.125927,0 -3.627646,-1.366022 -3.627646,-3.383391 0,-0.986068 0.289488,-3.283879 3.510041,-3.681925 l 3.211505,-0.407093 c 0.47042,-0.04523 1.02226,-0.226162 1.02226,-1.39316 0,-1.230324 -0.88656,-1.908812 -2.722999,-1.908812 -2.225439,0 -2.53302,1.366022 -2.668718,2.270671 z m 11.905197,-7.942826 v 16.102769 h -1.93596 V 23.882757 Z m 18.89813,16.111815 h -3.10295 v -7.237199 c 0,-1.773114 -0.76895,-2.35209 -1.68265,-2.35209 -1.54695,0 -2.08974,1.031301 -2.08974,2.442555 v 7.155781 h -3.10295 v -7.173874 c 0,-1.004162 0,-2.424462 -1.85453,-2.424462 -1.45648,0 -1.91786,1.031301 -1.91786,2.333997 v 7.264339 h -3.10294 V 28.06224 h 2.96725 v 1.745974 c 0.44328,-0.787045 1.30269,-2.062602 3.37434,-2.062602 1.70074,0 2.47874,0.633255 3.27483,1.908812 0.39805,-0.588023 1.25747,-1.908812 3.13914,-1.908812 2.29781,0 4.08902,1.366022 4.08902,3.998553 v 8.250407 z m 8.44039,-4.28804 V 34.18672 c -0.31663,0.244255 -0.82324,0.452325 -2.10784,0.642301 -1.1489,0.199023 -2.09879,0.497558 -2.09879,1.791207 0,1.103673 0.84133,1.438393 1.4384,1.438393 1.37507,0 2.76823,-0.895603 2.76823,-2.352089 z m 3.03057,-4.505157 v 6.4592 c 0,1.411254 0.30758,1.727882 0.68754,1.863579 v 0.470418 h -3.34721 c -0.18093,-0.560883 -0.21711,-0.741813 -0.28949,-1.411254 -0.70562,0.741813 -1.70074,1.727882 -3.80857,1.727882 -1.77312,0 -3.59146,-1.013208 -3.59146,-3.482903 0,-2.333996 1.46553,-3.519088 3.43767,-3.808576 l 2.78632,-0.425185 c 0.48851,-0.06333 1.08558,-0.271395 1.08558,-0.940836 0,-1.320789 -1.23937,-1.393161 -2.04451,-1.393161 -1.54695,0 -1.81835,0.967976 -1.89976,1.655509 h -2.9944 c 0.35282,-3.654785 2.8587,-4.170436 5.27411,-4.170436 1.67361,0 4.70418,0.515651 4.70418,3.455763 z m 4.33328,2.912973 c 0,1.411254 0.55183,3.609553 2.55111,3.609553 1.97214,0 2.75013,-1.655509 2.75013,-3.428623 0,-1.899765 -0.53374,-3.835716 -2.65967,-3.835716 -1.97213,0 -2.64157,1.773114 -2.64157,3.654786 z m 8.2685,-10.231591 v 16.102769 h -3.03058 v -1.501719 c -0.79609,1.347928 -2.17116,1.818346 -3.45576,1.818346 -3.49195,0 -4.94844,-3.139135 -4.94844,-6.413968 0,-4.125203 2.28877,-6.142573 4.87606,-6.142573 1.99928,0 2.92202,1.103673 3.41053,1.863579 l 0.0452,-5.717387 h 3.10295 z m 1.83644,4.179483 h 2.96725 v 2.062602 c 0.68753,-1.212231 1.39316,-2.37923 3.27483,-2.37923 0.19902,0 0.39805,0.01809 0.59707,0.04523 v 3.202461 c -0.26235,-0.04523 -0.59707,-0.04523 -0.88656,-0.04523 -2.41541,0 -2.85869,1.519812 -2.85869,2.840601 v 6.205898 h -3.10295 V 28.06224 Z m 10.91007,0 v 11.932332 h -3.10295 V 28.06224 Z m 0,-4.333273 v 2.922019 h -3.10295 v -2.922019 z"
     id="path196"
     style="stroke-width:0.90465" />
</svg>
